<svg width="343" height="286" viewBox="0 0 343 286" fill="none" xmlns="http://www.w3.org/2000/svg">
<g clip-path="url(#clip0_17_6147)">
<rect y="0.487305" width="343" height="284.926" rx="30" fill="#271A58"/>
<rect x="0.23317" y="0.333277" width="91.4962" height="91.4962" rx="19.7123" transform="matrix(0.984808 0.173648 -0.174411 0.984673 12.3302 -86.6468)" fill="#D9B6FF"/>
<rect x="0.23317" y="0.333277" width="91.4962" height="91.4962" rx="19.7123" transform="matrix(0.984808 0.173648 -0.174411 0.984673 12.3302 -86.6468)" stroke="#271A58" stroke-width="0.575447"/>
<rect x="0.23317" y="0.333277" width="91.4962" height="91.4962" rx="19.7123" transform="matrix(0.984808 0.173648 -0.174411 0.984673 109.874 -69.4472)" fill="#1FA46C"/>
<rect x="0.23317" y="0.333277" width="91.4962" height="91.4962" rx="19.7123" transform="matrix(0.984808 0.173648 -0.174411 0.984673 109.874 -69.4472)" stroke="#271A58" stroke-width="0.575447"/>
<rect x="0.23317" y="0.333277" width="91.4962" height="91.4962" rx="19.7123" transform="matrix(0.984808 0.173648 -0.174411 0.984673 207.417 -52.2477)" fill="#565EEF"/>
<rect x="0.23317" y="0.333277" width="91.4962" height="91.4962" rx="19.7123" transform="matrix(0.984808 0.173648 -0.174411 0.984673 207.417 -52.2477)" stroke="#271A58" stroke-width="0.575447"/>
<rect x="0.23317" y="0.333277" width="91.4962" height="91.4962" rx="19.7123" transform="matrix(0.984808 0.173648 -0.174411 0.984673 304.961 -35.0481)" fill="#00C1FF"/>
<rect x="0.23317" y="0.333277" width="91.4962" height="91.4962" rx="19.7123" transform="matrix(0.984808 0.173648 -0.174411 0.984673 304.961 -35.0481)" stroke="#271A58" stroke-width="0.575447"/>
<rect x="0.23317" y="0.333277" width="91.4962" height="91.4962" rx="19.7123" transform="matrix(0.984808 0.173648 -0.174411 0.984673 -4.85728 10.8264)" fill="#F25050"/>
<rect x="0.23317" y="0.333277" width="91.4962" height="91.4962" rx="19.7123" transform="matrix(0.984808 0.173648 -0.174411 0.984673 -4.85728 10.8264)" stroke="#271A58" stroke-width="0.575447"/>
<rect x="0.23317" y="0.333277" width="91.4962" height="91.4962" rx="19.7123" transform="matrix(0.984808 0.173648 -0.174411 0.984673 92.6867 28.0259)" fill="#FFC700"/>
<rect x="0.23317" y="0.333277" width="91.4962" height="91.4962" rx="19.7123" transform="matrix(0.984808 0.173648 -0.174411 0.984673 92.6867 28.0259)" stroke="#271A58" stroke-width="0.575447"/>
<rect x="0.23317" y="0.333277" width="91.4962" height="91.4962" rx="19.7123" transform="matrix(0.984808 0.173648 -0.174411 0.984673 190.23 45.2256)" fill="#99D100"/>
<rect x="0.23317" y="0.333277" width="91.4962" height="91.4962" rx="19.7123" transform="matrix(0.984808 0.173648 -0.174411 0.984673 190.23 45.2256)" stroke="#271A58" stroke-width="0.575447"/>
<rect x="0.23317" y="0.333277" width="91.4962" height="91.4962" rx="19.7123" transform="matrix(0.984808 0.173648 -0.174411 0.984673 287.774 62.4252)" fill="#AD61FF"/>
<rect x="0.23317" y="0.333277" width="91.4962" height="91.4962" rx="19.7123" transform="matrix(0.984808 0.173648 -0.174411 0.984673 287.774 62.4252)" stroke="#271A58" stroke-width="0.575447"/>
<rect x="0.23317" y="0.333277" width="91.4962" height="91.4962" rx="19.7123" transform="matrix(0.984808 0.173648 -0.174411 0.984673 -22.0438 108.3)" fill="#565EEF"/>
<rect x="0.23317" y="0.333277" width="91.4962" height="91.4962" rx="19.7123" transform="matrix(0.984808 0.173648 -0.174411 0.984673 -22.0438 108.3)" stroke="#271A58" stroke-width="0.575447"/>
<rect x="0.23317" y="0.333277" width="91.4962" height="91.4962" rx="19.7123" transform="matrix(0.984808 0.173648 -0.174411 0.984673 75.4992 125.499)" fill="#00C1FF"/>
<rect x="0.23317" y="0.333277" width="91.4962" height="91.4962" rx="19.7123" transform="matrix(0.984808 0.173648 -0.174411 0.984673 75.4992 125.499)" stroke="#271A58" stroke-width="0.575447"/>
<rect x="0.23317" y="0.333277" width="91.4962" height="91.4962" rx="19.7123" transform="matrix(0.984808 0.173648 -0.174411 0.984673 173.043 142.699)" fill="#FF6D00"/>
<rect x="0.23317" y="0.333277" width="91.4962" height="91.4962" rx="19.7123" transform="matrix(0.984808 0.173648 -0.174411 0.984673 173.043 142.699)" stroke="#271A58" stroke-width="0.575447"/>
<rect x="0.23317" y="0.333277" width="91.4962" height="91.4962" rx="19.7123" transform="matrix(0.984808 0.173648 -0.174411 0.984673 270.586 159.898)" fill="#1FA46C"/>
<rect x="0.23317" y="0.333277" width="91.4962" height="91.4962" rx="19.7123" transform="matrix(0.984808 0.173648 -0.174411 0.984673 270.586 159.898)" stroke="#271A58" stroke-width="0.575447"/>
<rect x="0.23317" y="0.333277" width="91.4962" height="91.4962" rx="19.7123" transform="matrix(0.984808 0.173648 -0.174411 0.984673 -39.2313 205.773)" fill="#AD61FF"/>
<rect x="0.23317" y="0.333277" width="91.4962" height="91.4962" rx="19.7123" transform="matrix(0.984808 0.173648 -0.174411 0.984673 -39.2313 205.773)" stroke="#271A58" stroke-width="0.575447"/>
<rect x="0.23317" y="0.333277" width="91.4962" height="91.4962" rx="19.7123" transform="matrix(0.984808 0.173648 -0.174411 0.984673 58.3117 222.973)" fill="#99D100"/>
<rect x="0.23317" y="0.333277" width="91.4962" height="91.4962" rx="19.7123" transform="matrix(0.984808 0.173648 -0.174411 0.984673 58.3117 222.973)" stroke="#271A58" stroke-width="0.575447"/>
<rect x="0.23317" y="0.333277" width="91.4962" height="91.4962" rx="19.7123" transform="matrix(0.984808 0.173648 -0.174411 0.984673 155.856 240.172)" fill="#FFC700"/>
<rect x="0.23317" y="0.333277" width="91.4962" height="91.4962" rx="19.7123" transform="matrix(0.984808 0.173648 -0.174411 0.984673 155.856 240.172)" stroke="#271A58" stroke-width="0.575447"/>
<rect x="0.23317" y="0.333277" width="91.4962" height="91.4962" rx="19.7123" transform="matrix(0.984808 0.173648 -0.174411 0.984673 253.4 257.372)" fill="#D9B6FF"/>
<rect x="0.23317" y="0.333277" width="91.4962" height="91.4962" rx="19.7123" transform="matrix(0.984808 0.173648 -0.174411 0.984673 253.4 257.372)" stroke="#271A58" stroke-width="0.575447"/>
</g>
<defs>
<clipPath id="clip0_17_6147">
<rect y="0.487305" width="343" height="284.926" rx="30" fill="white"/>
</clipPath>
</defs>
</svg>
