<svg width="343" height="286" viewBox="0 0 343 286" fill="none" xmlns="http://www.w3.org/2000/svg">
<g clip-path="url(#clip0_17_6060)">
<rect y="0.228027" width="343" height="284.926" rx="30" fill="#99D100"/>
<rect x="0.202599" y="0.28958" width="96.1033" height="128.304" rx="19.75" transform="matrix(0.984808 0.173648 -0.174411 0.984673 -43.4034 -96.878)" fill="#BCEC30"/>
<rect x="0.202599" y="0.28958" width="96.1033" height="128.304" rx="19.75" transform="matrix(0.984808 0.173648 -0.174411 0.984673 -43.4034 -96.878)" stroke="#202027" stroke-width="0.5"/>
<rect x="0.202599" y="0.28958" width="96.1033" height="128.304" rx="19.75" transform="matrix(0.984808 0.173648 -0.174411 0.984673 57.3173 -79.1183)" fill="#BCEC30"/>
<rect x="0.202599" y="0.28958" width="96.1033" height="128.304" rx="19.75" transform="matrix(0.984808 0.173648 -0.174411 0.984673 57.3173 -79.1183)" stroke="#202027" stroke-width="0.5"/>
<mask id="path-5-outside-1_17_6060" maskUnits="userSpaceOnUse" x="76.4415" y="-27.0346" width="32.5198" height="38.1674" fill="black">
<rect fill="white" x="76.4415" y="-27.0346" width="32.5198" height="38.1674"/>
<path d="M89.0883 -3.88114C89.3474 -5.34394 89.8817 -6.48669 90.6912 -7.30938C91.506 -8.16133 92.6288 -9.04945 94.0599 -9.97374C95.0483 -10.614 95.794 -11.1614 96.2969 -11.6158C96.805 -12.0994 97.1135 -12.6484 97.2223 -13.2628C97.3726 -14.1112 97.126 -14.8486 96.4826 -15.4749C95.8736 -16.1254 94.9986 -16.5512 93.8574 -16.7524C92.687 -16.9588 91.5698 -16.8692 90.5058 -16.4835C89.471 -16.0928 88.5729 -15.4516 87.8115 -14.5601L81.8937 -19.224C83.4561 -21.0604 85.4356 -22.3556 87.8322 -23.1096C90.2289 -23.8636 92.9779 -23.9672 96.0795 -23.4203C99.5615 -22.8064 102.226 -21.5822 104.074 -19.748C105.956 -17.9378 106.666 -15.7308 106.205 -13.127C105.993 -11.9275 105.599 -10.8958 105.023 -10.0318C104.453 -9.1971 103.818 -8.50952 103.119 -7.96907C102.454 -7.45272 101.598 -6.87956 100.551 -6.24958C99.4063 -5.57657 98.5453 -4.97415 97.9683 -4.44232C97.3965 -3.93975 97.0406 -3.29351 96.9007 -2.50359L89.0883 -3.88114ZM90.9424 8.39305C89.5087 8.14025 88.4014 7.49245 87.6205 6.44967C86.8448 5.37763 86.571 4.19798 86.799 2.91071C87.0322 1.59418 87.6775 0.591676 88.7348 -0.0968113C89.8214 -0.78014 91.0962 -0.99282 92.5592 -0.734853C94.0222 -0.476886 95.1467 0.158862 95.9328 1.17239C96.7188 2.18591 96.9953 3.35094 96.7621 4.66747C96.5341 5.95473 95.8716 6.96929 94.7746 7.71113C93.6828 8.42371 92.4054 8.65102 90.9424 8.39305Z"/>
</mask>
<path d="M89.0883 -3.88114C89.3474 -5.34394 89.8817 -6.48669 90.6912 -7.30938C91.506 -8.16133 92.6288 -9.04945 94.0599 -9.97374C95.0483 -10.614 95.794 -11.1614 96.2969 -11.6158C96.805 -12.0994 97.1135 -12.6484 97.2223 -13.2628C97.3726 -14.1112 97.126 -14.8486 96.4826 -15.4749C95.8736 -16.1254 94.9986 -16.5512 93.8574 -16.7524C92.687 -16.9588 91.5698 -16.8692 90.5058 -16.4835C89.471 -16.0928 88.5729 -15.4516 87.8115 -14.5601L81.8937 -19.224C83.4561 -21.0604 85.4356 -22.3556 87.8322 -23.1096C90.2289 -23.8636 92.9779 -23.9672 96.0795 -23.4203C99.5615 -22.8064 102.226 -21.5822 104.074 -19.748C105.956 -17.9378 106.666 -15.7308 106.205 -13.127C105.993 -11.9275 105.599 -10.8958 105.023 -10.0318C104.453 -9.1971 103.818 -8.50952 103.119 -7.96907C102.454 -7.45272 101.598 -6.87956 100.551 -6.24958C99.4063 -5.57657 98.5453 -4.97415 97.9683 -4.44232C97.3965 -3.93975 97.0406 -3.29351 96.9007 -2.50359L89.0883 -3.88114ZM90.9424 8.39305C89.5087 8.14025 88.4014 7.49245 87.6205 6.44967C86.8448 5.37763 86.571 4.19798 86.799 2.91071C87.0322 1.59418 87.6775 0.591676 88.7348 -0.0968113C89.8214 -0.78014 91.0962 -0.99282 92.5592 -0.734853C94.0222 -0.476886 95.1467 0.158862 95.9328 1.17239C96.7188 2.18591 96.9953 3.35094 96.7621 4.66747C96.5341 5.95473 95.8716 6.96929 94.7746 7.71113C93.6828 8.42371 92.4054 8.65102 90.9424 8.39305Z" fill="white"/>
<path d="M89.0883 -3.88114L88.6311 -3.96175L88.5501 -3.50463L89.0073 -3.42401L89.0883 -3.88114ZM90.6912 -7.30938L91.0221 -6.98394L91.0267 -6.98874L90.6912 -7.30938ZM94.0599 -9.97374L94.3116 -9.58391L94.3121 -9.58424L94.0599 -9.97374ZM96.2969 -11.6158L96.6082 -11.2714L96.617 -11.2797L96.2969 -11.6158ZM96.4826 -15.4749L96.1435 -15.1576L96.1509 -15.1497L96.1586 -15.1422L96.4826 -15.4749ZM90.5058 -16.4835L90.3478 -16.92L90.342 -16.9178L90.5058 -16.4835ZM87.8115 -14.5601L87.5239 -14.1955L87.8745 -13.9192L88.1645 -14.2589L87.8115 -14.5601ZM81.8937 -19.224L81.5401 -19.5246L81.2278 -19.1575L81.6061 -18.8593L81.8937 -19.224ZM87.8322 -23.1096L87.9713 -22.6668L87.9713 -22.6668L87.8322 -23.1096ZM104.074 -19.748L103.747 -19.4184L103.752 -19.4133L104.074 -19.748ZM105.023 -10.0318L105.407 -9.77017L105.41 -9.77472L105.023 -10.0318ZM103.119 -7.96907L102.835 -8.33622L102.834 -8.33554L103.119 -7.96907ZM100.551 -6.24958L100.787 -5.84945L100.791 -5.85192L100.551 -6.24958ZM97.9683 -4.44232L98.2748 -4.09371L98.2829 -4.10116L97.9683 -4.44232ZM96.9007 -2.50359L96.8197 -2.04647L97.2769 -1.96585L97.3579 -2.42298L96.9007 -2.50359ZM87.6205 6.44967L87.2442 6.72194L87.2487 6.72802L87.6205 6.44967ZM88.7348 -0.0968108L88.4877 -0.489719L88.4816 -0.485711L88.7348 -0.0968108ZM95.9328 1.17239L95.5658 1.45698L95.9328 1.17239ZM94.7746 7.71113L95.0283 8.09981L95.0346 8.09555L94.7746 7.71113ZM89.5455 -3.80052C89.7929 -5.19732 90.2951 -6.24515 91.0221 -6.98398L90.3604 -7.63479C89.4683 -6.72824 88.9019 -5.49057 88.6311 -3.96175L89.5455 -3.80052ZM91.0267 -6.98874C91.808 -7.80565 92.8989 -8.67142 94.3116 -9.58391L93.8081 -10.3636C92.3588 -9.42748 91.204 -8.51701 90.3557 -7.63003L91.0267 -6.98874ZM94.3121 -9.58424C95.3086 -10.2297 96.0782 -10.7927 96.6081 -11.2715L95.9858 -11.96C95.5098 -11.5301 94.788 -10.9983 93.8076 -10.3632L94.3121 -9.58424ZM96.617 -11.2797C97.1876 -11.8228 97.5513 -12.4583 97.6795 -13.1822L96.7651 -13.3434C96.6757 -12.8385 96.4225 -12.376 95.9769 -11.9518L96.617 -11.2797ZM97.6795 -13.1822C97.8579 -14.1895 97.5546 -15.0795 96.8067 -15.8076L96.1586 -15.1422C96.6975 -14.6177 96.8873 -14.0329 96.7651 -13.3434L97.6795 -13.1822ZM96.8217 -15.7923C96.126 -16.5353 95.1488 -16.9961 93.9384 -17.2095L93.7765 -16.2953C94.8484 -16.1063 95.6213 -15.7154 96.1435 -15.1576L96.8217 -15.7923ZM93.9384 -17.2095C92.6921 -17.4293 91.4922 -17.3347 90.3478 -16.9199L90.6637 -16.0472C91.6474 -16.4036 92.6819 -16.4883 93.7765 -16.2953L93.9384 -17.2095ZM90.342 -16.9178C89.2295 -16.4977 88.2676 -15.8088 87.4585 -14.8614L88.1645 -14.2589C88.8782 -15.0945 89.7125 -15.6879 90.6696 -16.0493L90.342 -16.9178ZM88.0991 -14.9247L82.1813 -19.5886L81.6061 -18.8593L87.5239 -14.1955L88.0991 -14.9247ZM82.2473 -18.9234C83.7506 -20.6902 85.6545 -21.9379 87.9713 -22.6668L87.6932 -23.5524C85.2168 -22.7732 83.1617 -21.4305 81.5401 -19.5246L82.2473 -18.9234ZM87.9713 -22.6668C90.281 -23.3935 92.9522 -23.5004 95.9985 -22.9632L96.1605 -23.8775C93.0037 -24.4341 90.1767 -24.3338 87.6932 -23.5524L87.9713 -22.6668ZM95.9985 -22.9632C99.4199 -22.3599 101.986 -21.1661 103.747 -19.4185L104.401 -20.0775C102.466 -21.9984 99.7031 -23.2528 96.1605 -23.8775L95.9985 -22.9632ZM103.752 -19.4133C105.521 -17.7119 106.183 -15.6613 105.748 -13.2076L106.662 -13.0464C107.15 -15.8003 106.391 -18.1636 104.396 -20.0826L103.752 -19.4133ZM105.748 -13.2076C105.545 -12.0604 105.171 -11.0911 104.637 -10.2889L105.41 -9.77472C106.026 -10.7005 106.441 -11.7947 106.662 -13.0464L105.748 -13.2076ZM104.64 -10.2934C104.093 -9.4932 103.491 -8.84298 102.835 -8.33622L103.403 -7.60192C104.146 -8.17606 104.813 -8.90099 105.407 -9.77019L104.64 -10.2934ZM102.834 -8.33554C102.189 -7.83426 101.35 -7.27156 100.312 -6.64724L100.791 -5.85192C101.847 -6.48756 102.72 -7.07118 103.404 -7.6026L102.834 -8.33554ZM100.316 -6.64969C99.1594 -5.96973 98.266 -5.34787 97.6537 -4.78349L98.2829 -4.10116C98.8245 -4.60043 99.6532 -5.18341 100.787 -5.84947L100.316 -6.64969ZM97.6619 -4.79084C97.0064 -4.21469 96.6008 -3.47187 96.4435 -2.58421L97.3579 -2.42298C97.4805 -3.11515 97.7866 -3.66481 98.2747 -4.09381L97.6619 -4.79084ZM96.9817 -2.96072L89.1692 -4.33827L89.0073 -3.42401L96.8197 -2.04647L96.9817 -2.96072ZM91.0234 7.93593C89.6911 7.701 88.694 7.1084 87.9923 6.17131L87.2487 6.72802C88.1088 7.87651 89.3263 8.57949 90.8615 8.85018L91.0234 7.93593ZM87.9968 6.17743C87.2937 5.20573 87.0504 4.15309 87.2562 2.99132L86.3418 2.83009C86.0916 4.24286 86.396 5.54953 87.2442 6.7219L87.9968 6.17743ZM87.2562 2.99132C87.4685 1.79279 88.0454 0.905842 88.988 0.292089L88.4816 -0.485711C87.3095 0.277511 86.5959 1.39557 86.3418 2.83009L87.2562 2.99132ZM88.9818 0.296049C89.9556 -0.316312 91.1096 -0.519049 92.4782 -0.277726L92.6402 -1.19198C91.0828 -1.46659 89.6872 -1.24397 88.4878 -0.489671L88.9818 0.296049ZM92.4782 -0.277726C93.8468 -0.0364026 94.8614 0.548714 95.5658 1.45698L96.2998 0.887798C95.4321 -0.230991 94.1976 -0.917368 92.6402 -1.19198L92.4782 -0.277726ZM95.5658 1.45698C96.2678 2.36216 96.5163 3.39322 96.3049 4.58685L97.2193 4.74808C97.4742 3.30866 97.1699 2.00967 96.2998 0.887798L95.5658 1.45698ZM96.3049 4.58685C96.0991 5.74862 95.5089 6.6543 94.5146 7.32671L95.0346 8.09555C96.2342 7.28427 96.969 6.16085 97.2193 4.74808L96.3049 4.58685ZM94.521 7.3225C93.5419 7.9615 92.3877 8.1765 91.0234 7.93593L90.8615 8.85018C92.4231 9.12555 93.8237 8.88593 95.0282 8.09976L94.521 7.3225Z" fill="#202027" mask="url(#path-5-outside-1_17_6060)"/>
<rect x="0.202599" y="0.28958" width="96.1033" height="128.304" rx="19.75" transform="matrix(0.984808 0.173648 -0.174411 0.984673 158.038 -61.3586)" fill="#BCEC30"/>
<rect x="0.202599" y="0.28958" width="96.1033" height="128.304" rx="19.75" transform="matrix(0.984808 0.173648 -0.174411 0.984673 158.038 -61.3586)" stroke="#202027" stroke-width="0.5"/>
<mask id="path-8-outside-2_17_6060" maskUnits="userSpaceOnUse" x="172.525" y="-12.9235" width="40.6343" height="46.2756" fill="black">
<rect fill="white" x="172.525" y="-12.9235" width="40.6343" height="46.2756"/>
<path d="M188.678 14.9766C188.999 13.1634 189.662 11.7469 190.665 10.7272C191.675 9.67114 193.067 8.57028 194.841 7.42457C196.066 6.6309 196.99 5.95246 197.614 5.38923C198.243 4.78975 198.626 4.10923 198.761 3.34768C198.947 2.29602 198.641 1.38201 197.844 0.605636C197.089 -0.200605 196.004 -0.728432 194.59 -0.977846C193.139 -1.23366 191.754 -1.12257 190.435 -0.644595C189.153 -0.160223 188.039 0.634501 187.096 1.73958L179.76 -4.04146C181.697 -6.31774 184.151 -7.92322 187.121 -8.85788C190.092 -9.79254 193.5 -9.92092 197.344 -9.24303C201.66 -8.482 204.963 -6.96465 207.253 -4.69098C209.586 -2.44718 210.467 0.288469 209.895 3.51598C209.632 5.00281 209.144 6.28169 208.43 7.35261C207.723 8.38726 206.937 9.23954 206.07 9.90945C205.246 10.5495 204.185 11.2599 202.887 12.0408C201.468 12.8751 200.401 13.6218 199.685 14.281C198.977 14.904 198.535 15.705 198.362 16.6841L188.678 14.9766ZM190.976 30.191C189.199 29.8776 187.827 29.0747 186.859 27.7821C185.897 26.4532 185.558 24.991 185.84 23.3954C186.13 21.7635 186.929 20.5209 188.24 19.6674C189.587 18.8204 191.167 18.5568 192.981 18.8766C194.794 19.1963 196.188 19.9844 197.162 21.2407C198.137 22.497 198.479 23.9411 198.19 25.573C197.908 27.1686 197.086 28.4262 195.727 29.3457C194.373 30.229 192.79 30.5107 190.976 30.191Z"/>
</mask>
<path d="M188.678 14.9766C188.999 13.1634 189.662 11.7469 190.665 10.7272C191.675 9.67114 193.067 8.57028 194.841 7.42457C196.066 6.6309 196.99 5.95246 197.614 5.38923C198.243 4.78975 198.626 4.10923 198.761 3.34768C198.947 2.29602 198.641 1.38201 197.844 0.605636C197.089 -0.200605 196.004 -0.728432 194.59 -0.977846C193.139 -1.23366 191.754 -1.12257 190.435 -0.644595C189.153 -0.160223 188.039 0.634501 187.096 1.73958L179.76 -4.04146C181.697 -6.31774 184.151 -7.92322 187.121 -8.85788C190.092 -9.79254 193.5 -9.92092 197.344 -9.24303C201.66 -8.482 204.963 -6.96465 207.253 -4.69098C209.586 -2.44718 210.467 0.288469 209.895 3.51598C209.632 5.00281 209.144 6.28169 208.43 7.35261C207.723 8.38726 206.937 9.23954 206.07 9.90945C205.246 10.5495 204.185 11.2599 202.887 12.0408C201.468 12.8751 200.401 13.6218 199.685 14.281C198.977 14.904 198.535 15.705 198.362 16.6841L188.678 14.9766ZM190.976 30.191C189.199 29.8776 187.827 29.0747 186.859 27.7821C185.897 26.4532 185.558 24.991 185.84 23.3954C186.13 21.7635 186.929 20.5209 188.24 19.6674C189.587 18.8204 191.167 18.5568 192.981 18.8766C194.794 19.1963 196.188 19.9844 197.162 21.2407C198.137 22.497 198.479 23.9411 198.19 25.573C197.908 27.1686 197.086 28.4262 195.727 29.3457C194.373 30.229 192.79 30.5107 190.976 30.191Z" fill="white"/>
<path d="M188.678 14.9766L188.221 14.896L188.14 15.3531L188.597 15.4337L188.678 14.9766ZM190.665 10.7272L190.996 11.0526L191.001 11.0478L190.665 10.7272ZM194.841 7.42457L195.092 7.81441L195.093 7.81407L194.841 7.42457ZM197.614 5.38923L197.925 5.73363L197.934 5.7253L197.614 5.38923ZM197.844 0.605635L197.505 0.922969L197.512 0.930816L197.52 0.938316L197.844 0.605635ZM190.435 -0.644596L190.277 -1.08102L190.271 -1.07881L190.435 -0.644596ZM187.096 1.73958L186.808 2.10419L187.159 2.38047L187.449 2.04084L187.096 1.73958ZM179.76 -4.04146L179.407 -4.34205L179.094 -3.97497L179.473 -3.67684L179.76 -4.04146ZM187.121 -8.85788L187.26 -8.41511L187.121 -8.85788ZM207.253 -4.69098L206.926 -4.36145L206.931 -4.35636L207.253 -4.69098ZM208.43 7.35261L208.814 7.61424L208.817 7.60969L208.43 7.35261ZM206.07 9.90945L205.786 9.5423L205.785 9.54298L206.07 9.90945ZM202.887 12.0408L203.122 12.441L203.126 12.4385L202.887 12.0408ZM199.685 14.281L199.992 14.6296L200 14.6222L199.685 14.281ZM198.362 16.6841L198.281 17.1413L198.738 17.2219L198.819 16.7648L198.362 16.6841ZM186.859 27.7821L186.482 28.0544L186.487 28.0604L186.859 27.7821ZM188.24 19.6674L187.993 19.2745L187.987 19.2785L188.24 19.6674ZM197.162 21.2407L196.795 21.5253L197.162 21.2407ZM195.727 29.3457L195.98 29.7344L195.987 29.7301L195.727 29.3457ZM189.135 15.0572C189.445 13.31 190.075 11.9885 190.996 11.0526L190.334 10.4018C189.248 11.5054 188.554 13.0168 188.221 14.896L189.135 15.0572ZM191.001 11.0478C191.977 10.0268 193.337 8.94831 195.092 7.81441L194.589 7.03474C192.797 8.19225 191.373 9.31546 190.33 10.4065L191.001 11.0478ZM195.093 7.81407C196.326 7.0152 197.274 6.32114 197.925 5.73352L197.302 5.04495C196.706 5.58377 195.806 6.2466 194.588 7.03507L195.093 7.81407ZM197.934 5.7253C198.626 5.06632 199.064 4.29937 199.218 3.4283L198.303 3.26707C198.188 3.9191 197.861 4.51317 197.294 5.05317L197.934 5.7253ZM199.218 3.4283C199.432 2.21777 199.07 1.15108 198.168 0.272955L197.52 0.938316C198.213 1.61294 198.462 2.37428 198.303 3.26707L199.218 3.4283ZM198.183 0.288303C197.341 -0.61057 196.154 -1.17336 194.671 -1.43497L194.509 -0.520719C195.854 -0.283506 196.837 0.209361 197.505 0.922969L198.183 0.288303ZM194.671 -1.43497C193.144 -1.70416 191.677 -1.58808 190.277 -1.08098L190.593 -0.208215C191.832 -0.657062 193.134 -0.763151 194.509 -0.520719L194.671 -1.43497ZM190.271 -1.07881C188.911 -0.56511 187.734 0.277379 186.743 1.43832L187.449 2.04084C188.345 0.991624 189.394 0.244663 190.599 -0.210376L190.271 -1.07881ZM187.383 1.37497L180.048 -4.40607L179.473 -3.67684L186.808 2.10419L187.383 1.37497ZM180.114 -3.74086C181.991 -5.94763 184.369 -7.50555 187.26 -8.41511L186.982 -9.30064C183.932 -8.34088 181.402 -6.68785 179.407 -4.34205L180.114 -3.74086ZM187.26 -8.41511C190.144 -9.32242 193.474 -9.45406 197.263 -8.7859L197.425 -9.70015C193.525 -10.3878 190.04 -10.2627 186.982 -9.30064L187.26 -8.41511ZM197.263 -8.7859C201.519 -8.03556 204.723 -6.54846 206.926 -4.36149L207.581 -5.02047C205.203 -7.38083 201.802 -8.92843 197.425 -9.70015L197.263 -8.7859ZM206.931 -4.35636C209.151 -2.22134 209.983 0.357932 209.438 3.43537L210.352 3.5966C210.951 0.219007 210.021 -2.67303 207.575 -5.0256L206.931 -4.35636ZM209.438 3.43537C209.184 4.86996 208.716 6.08638 208.044 7.09553L208.817 7.60969C209.571 6.47699 210.08 5.13566 210.352 3.5966L209.438 3.43537ZM208.047 7.09099C207.364 8.09116 206.609 8.90609 205.786 9.54231L206.354 10.2766C207.264 9.573 208.083 8.68336 208.814 7.61422L208.047 7.09099ZM205.785 9.54298C204.981 10.1679 203.936 10.868 202.648 11.6432L203.126 12.4385C204.434 11.6519 205.511 10.931 206.355 10.2759L205.785 9.54298ZM202.652 11.6407C201.221 12.4819 200.121 13.2481 199.371 13.9398L200 14.6222C200.68 13.9955 201.715 13.2682 203.122 12.4409L202.652 11.6407ZM199.379 13.9325C198.586 14.629 198.096 15.5266 197.905 16.6035L198.819 16.7648C198.975 15.8834 199.367 15.1789 199.992 14.6295L199.379 13.9325ZM198.443 16.227L188.759 14.5195L188.597 15.4337L198.281 17.1413L198.443 16.227ZM191.057 29.7339C189.382 29.4384 188.119 28.6906 187.231 27.5037L186.487 28.0604C187.534 29.4587 189.017 30.3169 190.895 30.6481L191.057 29.7339ZM187.235 27.5098C186.346 26.2813 186.037 24.9461 186.298 23.476L185.383 23.3148C185.078 25.0359 185.448 26.6251 186.483 28.0543L187.235 27.5098ZM186.298 23.476C186.566 21.9621 187.297 20.835 188.493 20.0563L187.987 19.2785C186.561 20.2067 185.693 21.5649 185.383 23.3148L186.298 23.476ZM188.487 20.0603C189.721 19.2843 191.18 19.0306 192.9 19.3337L193.061 18.4194C191.154 18.083 189.453 18.3566 187.993 19.2746L188.487 20.0603ZM192.9 19.3337C194.619 19.6368 195.902 20.3742 196.795 21.5253L197.529 20.9561C196.473 19.5945 194.969 18.7558 193.061 18.4194L192.9 19.3337ZM196.795 21.5253C197.686 22.6732 198 23.9834 197.733 25.4923L198.647 25.6536C198.958 23.8988 198.588 22.3207 197.529 20.9561L196.795 21.5253ZM197.733 25.4923C197.473 26.9625 196.724 28.1112 195.467 28.9613L195.987 29.7301C197.449 28.7412 198.342 27.3747 198.647 25.6536L197.733 25.4923ZM195.473 28.9571C194.232 29.7668 192.772 30.0362 191.057 29.7339L190.895 30.6481C192.808 30.9853 194.514 30.6912 195.98 29.7343L195.473 28.9571Z" fill="#202027" mask="url(#path-8-outside-2_17_6060)"/>
<rect x="0.202599" y="0.28958" width="96.1033" height="128.304" rx="19.75" transform="matrix(0.984808 0.173648 -0.174411 0.984673 258.758 -43.5989)" fill="#BCEC30"/>
<rect x="0.202599" y="0.28958" width="96.1033" height="128.304" rx="19.75" transform="matrix(0.984808 0.173648 -0.174411 0.984673 258.758 -43.5989)" stroke="#202027" stroke-width="0.5"/>
<mask id="path-11-outside-3_17_6060" maskUnits="userSpaceOnUse" x="273.245" y="4.83616" width="40.6343" height="46.2756" fill="black">
<rect fill="white" x="273.245" y="4.83616" width="40.6343" height="46.2756"/>
<path d="M289.398 32.7363C289.719 30.9231 290.381 29.5066 291.385 28.4868C292.395 27.4308 293.787 26.33 295.56 25.1842C296.786 24.3906 297.71 23.7121 298.333 23.1489C298.963 22.5494 299.345 21.8689 299.48 21.1074C299.667 20.0557 299.361 19.1417 298.563 18.3653C297.809 17.5591 296.724 17.0312 295.309 16.7818C293.859 16.526 292.474 16.6371 291.155 17.1151C289.872 17.5995 288.759 18.3942 287.815 19.4993L280.48 13.7182C282.417 11.4419 284.87 9.83646 287.841 8.9018C290.812 7.96714 294.219 7.83875 298.064 8.51665C302.38 9.27768 305.683 10.795 307.973 13.0687C310.306 15.3125 311.187 18.0481 310.615 21.2757C310.352 22.7625 309.863 24.0414 309.15 25.1123C308.443 26.1469 307.656 26.9992 306.79 27.6691C305.966 28.3092 304.905 29.0196 303.607 29.8005C302.188 30.6347 301.12 31.3815 300.405 32.0407C299.696 32.6636 299.255 33.4647 299.082 34.4438L289.398 32.7363ZM291.696 47.9507C289.919 47.6373 288.546 46.8343 287.579 45.5418C286.617 44.2129 286.278 42.7507 286.56 41.1551C286.849 39.5232 287.649 38.2805 288.96 37.4271C290.307 36.5801 291.887 36.3165 293.7 36.6362C295.514 36.956 296.908 37.744 297.882 39.0003C298.856 40.2567 299.199 41.7008 298.91 43.3326C298.627 44.9283 297.806 46.1858 296.446 47.1054C295.093 47.9887 293.51 48.2704 291.696 47.9507Z"/>
</mask>
<path d="M289.398 32.7363C289.719 30.9231 290.381 29.5066 291.385 28.4868C292.395 27.4308 293.787 26.33 295.56 25.1842C296.786 24.3906 297.71 23.7121 298.333 23.1489C298.963 22.5494 299.345 21.8689 299.48 21.1074C299.667 20.0557 299.361 19.1417 298.563 18.3653C297.809 17.5591 296.724 17.0312 295.309 16.7818C293.859 16.526 292.474 16.6371 291.155 17.1151C289.872 17.5995 288.759 18.3942 287.815 19.4993L280.48 13.7182C282.417 11.4419 284.87 9.83646 287.841 8.9018C290.812 7.96714 294.219 7.83875 298.064 8.51665C302.38 9.27768 305.683 10.795 307.973 13.0687C310.306 15.3125 311.187 18.0481 310.615 21.2757C310.352 22.7625 309.863 24.0414 309.15 25.1123C308.443 26.1469 307.656 26.9992 306.79 27.6691C305.966 28.3092 304.905 29.0196 303.607 29.8005C302.188 30.6347 301.12 31.3815 300.405 32.0407C299.696 32.6636 299.255 33.4647 299.082 34.4438L289.398 32.7363ZM291.696 47.9507C289.919 47.6373 288.546 46.8343 287.579 45.5418C286.617 44.2129 286.278 42.7507 286.56 41.1551C286.849 39.5232 287.649 38.2805 288.96 37.4271C290.307 36.5801 291.887 36.3165 293.7 36.6362C295.514 36.956 296.908 37.744 297.882 39.0003C298.856 40.2567 299.199 41.7008 298.91 43.3326C298.627 44.9283 297.806 46.1858 296.446 47.1054C295.093 47.9887 293.51 48.2704 291.696 47.9507Z" fill="white"/>
<path d="M289.398 32.7363L288.941 32.6557L288.86 33.1128L289.317 33.1934L289.398 32.7363ZM291.385 28.4868L291.716 28.8123L291.72 28.8075L291.385 28.4868ZM295.56 25.1842L295.812 25.5741L295.813 25.5737L295.56 25.1842ZM298.333 23.1489L298.645 23.4933L298.653 23.485L298.333 23.1489ZM298.563 18.3653L298.224 18.6826L298.232 18.6905L298.239 18.698L298.563 18.3653ZM291.155 17.1151L290.997 16.6787L290.991 16.6809L291.155 17.1151ZM287.815 19.4993L287.528 19.8639L287.878 20.1401L288.168 19.8005L287.815 19.4993ZM280.48 13.7182L280.126 13.4176L279.814 13.7847L280.192 14.0828L280.48 13.7182ZM287.841 8.9018L287.98 9.34456L287.841 8.9018ZM307.973 13.0687L307.646 13.3982L307.651 13.4033L307.973 13.0687ZM309.15 25.1123L309.533 25.3739L309.536 25.3694L309.15 25.1123ZM306.79 27.6691L306.506 27.302L306.505 27.3027L306.79 27.6691ZM303.607 29.8005L303.842 30.2006L303.846 30.1982L303.607 29.8005ZM300.405 32.0407L300.712 32.3893L300.72 32.3818L300.405 32.0407ZM299.082 34.4438L299.001 34.9009L299.458 34.9816L299.539 34.5244L299.082 34.4438ZM287.579 45.5418L287.202 45.814L287.207 45.8201L287.579 45.5418ZM288.96 37.4271L288.713 37.0342L288.707 37.0382L288.96 37.4271ZM297.882 39.0003L297.515 39.2849L297.882 39.0003ZM296.446 47.1054L296.7 47.4941L296.706 47.4898L296.446 47.1054ZM289.855 32.8169C290.165 31.0697 290.795 29.7481 291.716 28.8122L291.054 28.1614C289.968 29.2651 289.274 30.7765 288.941 32.6557L289.855 32.8169ZM291.72 28.8075C292.697 27.7865 294.057 26.708 295.812 25.5741L295.309 24.7944C293.517 25.9519 292.093 27.0751 291.049 28.1662L291.72 28.8075ZM295.813 25.5737C297.046 24.7749 297.994 24.0808 298.644 23.4932L298.022 22.8046C297.426 23.3434 296.525 24.0063 295.308 24.7947L295.813 25.5737ZM298.653 23.485C299.346 22.826 299.783 22.059 299.938 21.188L299.023 21.0267C298.908 21.6788 298.581 22.2728 298.013 22.8128L298.653 23.485ZM299.938 21.188C300.152 19.9774 299.79 18.9108 298.888 18.0326L298.239 18.698C298.932 19.3726 299.181 20.134 299.023 21.0267L299.938 21.188ZM298.903 18.048C298.061 17.1491 296.874 16.5863 295.39 16.3247L295.229 17.239C296.574 17.4762 297.556 17.969 298.224 18.6826L298.903 18.048ZM295.39 16.3247C293.864 16.0555 292.396 16.1716 290.997 16.6787L291.313 17.5515C292.551 17.1026 293.854 16.9965 295.229 17.239L295.39 16.3247ZM290.991 16.6809C289.631 17.1946 288.454 18.0371 287.462 19.198L288.168 19.8005C289.064 18.7513 290.114 18.0043 291.319 17.5493L290.991 16.6809ZM288.103 19.1346L280.768 13.3536L280.192 14.0828L287.528 19.8639L288.103 19.1346ZM280.834 14.0188C282.711 11.812 285.089 10.2541 287.98 9.34456L287.702 8.45904C284.651 9.41879 282.122 11.0718 280.126 13.4176L280.834 14.0188ZM287.98 9.34456C290.864 8.43725 294.193 8.30561 297.983 8.97377L298.145 8.05952C294.245 7.3719 290.76 7.49702 287.702 8.45904L287.98 9.34456ZM297.983 8.97377C302.238 9.72412 305.443 11.2112 307.646 13.3982L308.3 12.7392C305.923 10.3788 302.521 8.83124 298.145 8.05952L297.983 8.97377ZM307.651 13.4033C309.871 15.5383 310.703 18.1176 310.158 21.195L311.072 21.3563C311.67 17.9787 310.741 15.0866 308.295 12.7341L307.651 13.4033ZM310.158 21.195C309.904 22.6296 309.436 23.8461 308.764 24.8552L309.536 25.3694C310.291 24.2367 310.8 22.8953 311.072 21.3563L310.158 21.195ZM308.767 24.8507C308.083 25.8508 307.329 26.6658 306.506 27.302L307.073 28.0363C307.984 27.3327 308.803 26.443 309.533 25.3739L308.767 24.8507ZM306.505 27.3027C305.7 27.9276 304.656 28.6276 303.368 29.4028L303.846 30.1982C305.153 29.4116 306.231 28.6907 307.074 28.0356L306.505 27.3027ZM303.372 29.4004C301.941 30.2416 300.841 31.0077 300.09 31.6995L300.72 32.3818C301.399 31.7552 302.434 31.0279 303.842 30.2006L303.372 29.4004ZM300.099 31.6922C299.306 32.3887 298.815 33.2863 298.625 34.3632L299.539 34.5244C299.695 33.643 300.086 32.9386 300.711 32.3892L300.099 31.6922ZM299.163 33.9867L289.479 32.2792L289.317 33.1934L299.001 34.9009L299.163 33.9867ZM291.777 47.4935C290.101 47.1981 288.839 46.4503 287.95 45.2634L287.207 45.8201C288.254 47.2184 289.737 48.0765 291.615 48.4078L291.777 47.4935ZM287.955 45.2695C287.066 44.041 286.757 42.7058 287.017 41.2357L286.103 41.0744C285.798 42.7956 286.168 44.3848 287.202 45.814L287.955 45.2695ZM287.017 41.2357C287.286 39.7218 288.017 38.5947 289.213 37.816L288.707 37.0382C287.281 37.9664 286.413 39.3246 286.103 41.0744L287.017 41.2357ZM289.207 37.82C290.441 37.0439 291.9 36.7902 293.619 37.0934L293.781 36.1791C291.873 35.8427 290.172 36.1163 288.713 37.0343L289.207 37.82ZM293.619 37.0934C295.338 37.3965 296.622 38.1339 297.515 39.2849L298.249 38.7158C297.193 37.3542 295.689 36.5155 293.781 36.1791L293.619 37.0934ZM297.515 39.2849C298.405 40.4329 298.72 41.743 298.453 43.252L299.367 43.4133C299.678 41.6585 299.307 40.0804 298.249 38.7158L297.515 39.2849ZM298.453 43.252C298.192 44.7221 297.443 45.8709 296.186 46.721L296.706 47.4898C298.169 46.5008 299.062 45.1344 299.367 43.4133L298.453 43.252ZM296.193 46.7168C294.952 47.5265 293.492 47.7959 291.777 47.4935L291.615 48.4078C293.527 48.7449 295.234 48.4509 296.7 47.494L296.193 46.7168Z" fill="#202027" mask="url(#path-11-outside-3_17_6060)"/>
<rect x="0.202599" y="0.28958" width="96.1033" height="128.304" rx="19.75" transform="matrix(0.984808 0.173648 -0.174411 0.984673 359.478 -25.8392)" fill="#BCEC30"/>
<rect x="0.202599" y="0.28958" width="96.1033" height="128.304" rx="19.75" transform="matrix(0.984808 0.173648 -0.174411 0.984673 359.478 -25.8392)" stroke="#202027" stroke-width="0.5"/>
<rect x="0.202599" y="0.28958" width="96.1033" height="128.304" rx="19.75" transform="matrix(0.984808 0.173648 -0.174411 0.984673 -66.7365 35.4559)" fill="#BCEC30"/>
<rect x="0.202599" y="0.28958" width="96.1033" height="128.304" rx="19.75" transform="matrix(0.984808 0.173648 -0.174411 0.984673 -66.7365 35.4559)" stroke="#202027" stroke-width="0.5"/>
<rect x="0.202599" y="0.28958" width="96.1033" height="128.304" rx="19.75" transform="matrix(0.984808 0.173648 -0.174411 0.984673 33.9833 53.2156)" fill="#BCEC30"/>
<rect x="0.202599" y="0.28958" width="96.1033" height="128.304" rx="19.75" transform="matrix(0.984808 0.173648 -0.174411 0.984673 33.9833 53.2156)" stroke="#202027" stroke-width="0.5"/>
<mask id="path-16-outside-4_17_6060" maskUnits="userSpaceOnUse" x="48.4704" y="101.651" width="40.6343" height="46.2756" fill="black">
<rect fill="white" x="48.4704" y="101.651" width="40.6343" height="46.2756"/>
<path d="M64.6235 129.551C64.9446 127.738 65.6069 126.321 66.6104 125.301C67.6203 124.245 69.0122 123.144 70.786 121.999C72.0112 121.205 72.9355 120.527 73.5589 119.963C74.1887 119.364 74.5711 118.683 74.7059 117.922C74.8922 116.87 74.5866 115.956 73.7891 115.18C73.0342 114.374 71.9496 113.846 70.5351 113.596C69.0843 113.341 67.6994 113.452 66.3805 113.93C65.0979 114.414 63.9847 115.209 63.0409 116.314L55.7055 110.533C57.6422 108.256 60.0959 106.651 63.0666 105.716C66.0373 104.782 69.4449 104.653 73.2894 105.331C77.6054 106.092 80.9085 107.61 83.1988 109.883C85.5317 112.127 86.4123 114.863 85.8406 118.09C85.5772 119.577 85.0889 120.856 84.3756 121.927C83.6687 122.961 82.8819 123.814 82.0152 124.484C81.1912 125.124 80.1303 125.834 78.8326 126.615C77.4131 127.449 76.3458 128.196 75.6306 128.855C74.9218 129.478 74.4807 130.279 74.3073 131.258L64.6235 129.551ZM66.9218 144.765C65.1446 144.452 63.772 143.649 62.8041 142.356C61.8426 141.027 61.5032 139.565 61.7858 137.97C62.0749 136.338 62.8747 135.095 64.1853 134.242C65.5322 133.395 67.1124 133.131 68.9258 133.451C70.7393 133.771 72.1332 134.559 73.1075 135.815C74.0819 137.071 74.4245 138.515 74.1355 140.147C73.8528 141.743 73.0316 143 71.6719 143.92C70.3186 144.803 68.7352 145.085 66.9218 144.765Z"/>
</mask>
<path d="M64.6235 129.551C64.9446 127.738 65.6069 126.321 66.6104 125.301C67.6203 124.245 69.0122 123.144 70.786 121.999C72.0112 121.205 72.9355 120.527 73.5589 119.963C74.1887 119.364 74.5711 118.683 74.7059 117.922C74.8922 116.87 74.5866 115.956 73.7891 115.18C73.0342 114.374 71.9496 113.846 70.5351 113.596C69.0843 113.341 67.6994 113.452 66.3805 113.93C65.0979 114.414 63.9847 115.209 63.0409 116.314L55.7055 110.533C57.6422 108.256 60.0959 106.651 63.0666 105.716C66.0373 104.782 69.4449 104.653 73.2894 105.331C77.6054 106.092 80.9085 107.61 83.1988 109.883C85.5317 112.127 86.4123 114.863 85.8406 118.09C85.5772 119.577 85.0889 120.856 84.3756 121.927C83.6687 122.961 82.8819 123.814 82.0152 124.484C81.1912 125.124 80.1303 125.834 78.8326 126.615C77.4131 127.449 76.3458 128.196 75.6306 128.855C74.9218 129.478 74.4807 130.279 74.3073 131.258L64.6235 129.551ZM66.9218 144.765C65.1446 144.452 63.772 143.649 62.8041 142.356C61.8426 141.027 61.5032 139.565 61.7858 137.97C62.0749 136.338 62.8747 135.095 64.1853 134.242C65.5322 133.395 67.1124 133.131 68.9258 133.451C70.7393 133.771 72.1332 134.559 73.1075 135.815C74.0819 137.071 74.4245 138.515 74.1355 140.147C73.8528 141.743 73.0316 143 71.6719 143.92C70.3186 144.803 68.7352 145.085 66.9218 144.765Z" fill="white"/>
<path d="M64.6235 129.551L64.1663 129.47L64.0853 129.927L64.5425 130.008L64.6235 129.551ZM66.6104 125.301L66.9413 125.627L66.9459 125.622L66.6104 125.301ZM70.786 121.999L71.0377 122.389L71.0382 122.388L70.786 121.999ZM73.5589 119.963L73.8702 120.308L73.8789 120.299L73.5589 119.963ZM73.7891 115.18L73.45 115.497L73.4573 115.505L73.465 115.513L73.7891 115.18ZM66.3805 113.93L66.2226 113.493L66.2167 113.495L66.3805 113.93ZM63.0409 116.314L62.7533 116.678L63.1038 116.955L63.3939 116.615L63.0409 116.314ZM55.7055 110.533L55.3519 110.232L55.0396 110.599L55.4179 110.897L55.7055 110.533ZM63.0666 105.716L63.2057 106.159L63.0666 105.716ZM83.1988 109.883L82.8714 110.213L82.8767 110.218L83.1988 109.883ZM84.3756 121.927L84.759 122.188L84.762 122.184L84.3756 121.927ZM82.0152 124.484L81.7314 124.116L81.7305 124.117L82.0152 124.484ZM78.8326 126.615L79.0677 127.015L79.0718 127.013L78.8326 126.615ZM75.6306 128.855L75.9371 129.204L75.9452 129.196L75.6306 128.855ZM74.3073 131.258L74.2263 131.715L74.6835 131.796L74.7645 131.339L74.3073 131.258ZM62.8041 142.356L62.4278 142.629L62.4323 142.635L62.8041 142.356ZM64.1853 134.242L63.9383 133.849L63.9321 133.853L64.1853 134.242ZM73.1075 135.815L72.7405 136.099L73.1075 135.815ZM71.6719 143.92L71.9256 144.309L71.9319 144.304L71.6719 143.92ZM65.0806 129.631C65.3901 127.884 66.0203 126.563 66.9413 125.627L66.2795 124.976C65.1935 126.08 64.4991 127.591 64.1663 129.47L65.0806 129.631ZM66.9459 125.622C67.9223 124.601 69.2822 123.522 71.0377 122.389L70.5342 121.609C68.7421 122.766 67.3183 123.89 66.2749 124.981L66.9459 125.622ZM71.0382 122.388C72.2715 121.589 73.2197 120.895 73.8701 120.308L73.2477 119.619C72.6513 120.158 71.7509 120.821 70.5337 121.609L71.0382 122.388ZM73.8789 120.299C74.5712 119.641 75.0088 118.874 75.1631 118.002L74.2488 117.841C74.1333 118.493 73.8062 119.087 73.2389 119.627L73.8789 120.299ZM75.1631 118.002C75.3776 116.792 75.0152 115.725 74.1131 114.847L73.465 115.513C74.158 116.187 74.4069 116.948 74.2488 117.841L75.1631 118.002ZM74.1282 114.862C73.2866 113.964 72.0997 113.401 70.616 113.139L70.4541 114.053C71.7994 114.291 72.7819 114.784 73.45 115.497L74.1282 114.862ZM70.616 113.139C69.0894 112.87 67.6219 112.986 66.2226 113.493L66.5385 114.366C67.777 113.917 69.0792 113.811 70.4541 114.053L70.616 113.139ZM66.2167 113.495C64.8564 114.009 63.6794 114.852 62.6879 116.013L63.3939 116.615C64.29 115.566 65.3393 114.819 66.5443 114.364L66.2167 113.495ZM63.3285 115.949L55.9931 110.168L55.4179 110.897L62.7533 116.678L63.3285 115.949ZM56.0591 110.833C57.9366 108.627 60.3147 107.069 63.2057 106.159L62.9275 105.274C59.877 106.233 57.3478 107.886 55.3519 110.232L56.0591 110.833ZM63.2057 106.159C66.0894 105.252 69.4191 105.12 73.2084 105.788L73.3704 104.874C69.4707 104.186 65.9851 104.312 62.9275 105.274L63.2057 106.159ZM73.2084 105.788C77.4638 106.539 80.6686 108.026 82.8715 110.213L83.526 109.554C81.1485 107.193 77.747 105.646 73.3704 104.874L73.2084 105.788ZM82.8767 110.218C85.0965 112.353 85.9285 114.932 85.3834 118.01L86.2978 118.171C86.896 114.793 85.9668 111.901 83.5208 109.549L82.8767 110.218ZM85.3834 118.01C85.1293 119.444 84.6614 120.661 83.9892 121.67L84.762 122.184C85.5165 121.051 86.0252 119.71 86.2978 118.171L85.3834 118.01ZM83.9923 121.665C83.3089 122.665 82.5545 123.48 81.7314 124.116L82.299 124.851C83.2093 124.147 84.0285 123.258 84.7589 122.188L83.9923 121.665ZM81.7305 124.117C80.9259 124.742 79.8817 125.442 78.5933 126.217L79.0718 127.013C80.3789 126.226 81.4565 125.505 82.2999 124.85L81.7305 124.117ZM78.5975 126.215C77.1662 127.056 76.0665 127.822 75.316 128.514L75.9452 129.196C76.6251 128.57 77.66 127.842 79.0676 127.015L78.5975 126.215ZM75.3242 128.507C74.5317 129.203 74.0409 130.101 73.8501 131.178L74.7645 131.339C74.9206 130.458 75.312 129.753 75.937 129.204L75.3242 128.507ZM74.3883 130.801L64.7044 129.094L64.5425 130.008L74.2263 131.715L74.3883 130.801ZM67.0027 144.308C65.327 144.013 64.0646 143.265 63.1759 142.078L62.4323 142.635C63.4794 144.033 64.9622 144.891 66.8408 145.222L67.0027 144.308ZM63.1804 142.084C62.2915 140.856 61.9826 139.52 62.243 138.05L61.3286 137.889C61.0238 139.61 61.3938 141.199 62.4278 142.629L63.1804 142.084ZM62.243 138.05C62.5111 136.536 63.2427 135.409 64.4385 134.631L63.9321 133.853C62.5067 134.781 61.6386 136.139 61.3286 137.889L62.243 138.05ZM64.4323 134.634C65.6664 133.858 67.1258 133.605 68.8449 133.908L69.0068 132.994C67.099 132.657 65.398 132.931 63.9383 133.849L64.4323 134.634ZM68.8449 133.908C70.5639 134.211 71.8478 134.948 72.7405 136.099L73.4745 135.53C72.4186 134.169 70.9147 133.33 69.0068 132.994L68.8449 133.908ZM72.7405 136.099C73.6308 137.247 73.9455 138.558 73.6783 140.067L74.5926 140.228C74.9035 138.473 74.5329 136.895 73.4745 135.53L72.7405 136.099ZM73.6783 140.067C73.4179 141.537 72.669 142.685 71.412 143.535L71.9319 144.304C73.3943 143.315 74.2878 141.949 74.5926 140.228L73.6783 140.067ZM71.4183 143.531C70.1777 144.341 68.7175 144.61 67.0027 144.308L66.8408 145.222C68.7529 145.559 70.4595 145.265 71.9255 144.309L71.4183 143.531Z" fill="#202027" mask="url(#path-16-outside-4_17_6060)"/>
<rect x="0.202599" y="0.28958" width="96.1033" height="128.304" rx="19.75" transform="matrix(0.984808 0.173648 -0.174411 0.984673 134.704 70.9753)" fill="#BCEC30"/>
<rect x="0.202599" y="0.28958" width="96.1033" height="128.304" rx="19.75" transform="matrix(0.984808 0.173648 -0.174411 0.984673 134.704 70.9753)" stroke="#202027" stroke-width="0.5"/>
<mask id="path-19-outside-5_17_6060" maskUnits="userSpaceOnUse" x="153.828" y="123.059" width="32.5198" height="38.1674" fill="black">
<rect fill="white" x="153.828" y="123.059" width="32.5198" height="38.1674"/>
<path d="M166.475 146.212C166.734 144.75 167.268 143.607 168.078 142.784C168.893 141.932 170.016 141.044 171.447 140.12C172.435 139.48 173.181 138.932 173.684 138.478C174.192 137.994 174.5 137.445 174.609 136.831C174.759 135.982 174.513 135.245 173.869 134.619C173.26 133.968 172.385 133.542 171.244 133.341C170.074 133.135 168.957 133.224 167.892 133.61C166.858 134.001 165.96 134.642 165.198 135.534L159.28 130.87C160.843 129.033 162.822 127.738 165.219 126.984C167.616 126.23 170.365 126.126 173.466 126.673C176.948 127.287 179.613 128.511 181.461 130.346C183.343 132.156 184.053 134.363 183.592 136.967C183.379 138.166 182.985 139.198 182.41 140.062C181.84 140.897 181.205 141.584 180.506 142.125C179.841 142.641 178.985 143.214 177.938 143.844C176.793 144.517 175.932 145.119 175.355 145.651C174.783 146.154 174.427 146.8 174.287 147.59L166.475 146.212ZM168.329 158.487C166.895 158.234 165.788 157.586 165.007 156.543C164.232 155.471 163.958 154.292 164.186 153.004C164.419 151.688 165.064 150.685 166.122 149.997C167.208 149.313 168.483 149.101 169.946 149.359C171.409 149.617 172.533 150.252 173.32 151.266C174.106 152.28 174.382 153.445 174.149 154.761C173.921 156.048 173.258 157.063 172.161 157.805C171.07 158.517 169.792 158.745 168.329 158.487Z"/>
</mask>
<path d="M166.475 146.212C166.734 144.75 167.268 143.607 168.078 142.784C168.893 141.932 170.016 141.044 171.447 140.12C172.435 139.48 173.181 138.932 173.684 138.478C174.192 137.994 174.5 137.445 174.609 136.831C174.759 135.982 174.513 135.245 173.869 134.619C173.26 133.968 172.385 133.542 171.244 133.341C170.074 133.135 168.957 133.224 167.892 133.61C166.858 134.001 165.96 134.642 165.198 135.534L159.28 130.87C160.843 129.033 162.822 127.738 165.219 126.984C167.616 126.23 170.365 126.126 173.466 126.673C176.948 127.287 179.613 128.511 181.461 130.346C183.343 132.156 184.053 134.363 183.592 136.967C183.379 138.166 182.985 139.198 182.41 140.062C181.84 140.897 181.205 141.584 180.506 142.125C179.841 142.641 178.985 143.214 177.938 143.844C176.793 144.517 175.932 145.119 175.355 145.651C174.783 146.154 174.427 146.8 174.287 147.59L166.475 146.212ZM168.329 158.487C166.895 158.234 165.788 157.586 165.007 156.543C164.232 155.471 163.958 154.292 164.186 153.004C164.419 151.688 165.064 150.685 166.122 149.997C167.208 149.313 168.483 149.101 169.946 149.359C171.409 149.617 172.533 150.252 173.32 151.266C174.106 152.28 174.382 153.445 174.149 154.761C173.921 156.048 173.258 157.063 172.161 157.805C171.07 158.517 169.792 158.745 168.329 158.487Z" fill="white"/>
<path d="M166.475 146.212L166.018 146.132L165.937 146.589L166.394 146.67L166.475 146.212ZM168.078 142.784L168.409 143.11L168.413 143.105L168.078 142.784ZM171.447 140.12L171.698 140.51L171.699 140.509L171.447 140.12ZM173.684 138.478L173.995 138.822L174.004 138.814L173.684 138.478ZM173.869 134.619L173.53 134.936L173.538 134.944L173.545 134.951L173.869 134.619ZM167.892 133.61L167.735 133.174L167.729 133.176L167.892 133.61ZM165.198 135.534L164.911 135.898L165.261 136.174L165.551 135.835L165.198 135.534ZM159.28 130.87L158.927 130.569L158.615 130.936L158.993 131.234L159.28 130.87ZM165.219 126.984L165.358 127.427L165.358 127.427L165.219 126.984ZM181.461 130.346L181.133 130.675L181.139 130.68L181.461 130.346ZM182.41 140.062L182.793 140.323L182.796 140.319L182.41 140.062ZM180.506 142.125L180.222 141.757L180.221 141.758L180.506 142.125ZM177.938 143.844L178.173 144.244L178.177 144.242L177.938 143.844ZM175.355 145.651L175.662 146L175.67 145.992L175.355 145.651ZM174.287 147.59L174.206 148.047L174.664 148.128L174.745 147.671L174.287 147.59ZM165.007 156.543L164.631 156.816L164.635 156.822L165.007 156.543ZM166.122 149.997L165.874 149.604L165.868 149.608L166.122 149.997ZM173.319 151.266L172.952 151.551L173.319 151.266ZM172.161 157.805L172.415 158.193L172.421 158.189L172.161 157.805ZM166.932 146.293C167.18 144.896 167.682 143.848 168.409 143.11L167.747 142.459C166.855 143.365 166.289 144.603 166.018 146.132L166.932 146.293ZM168.413 143.105C169.195 142.288 170.286 141.422 171.698 140.51L171.195 139.73C169.746 140.666 168.591 141.577 167.742 142.464L168.413 143.105ZM171.699 140.509C172.695 139.864 173.465 139.301 173.995 138.822L173.372 138.134C172.897 138.564 172.175 139.095 171.194 139.73L171.699 140.509ZM174.004 138.814C174.574 138.271 174.938 137.635 175.066 136.911L174.152 136.75C174.062 137.255 173.809 137.718 173.364 138.142L174.004 138.814ZM175.066 136.911C175.245 135.904 174.941 135.014 174.193 134.286L173.545 134.951C174.084 135.476 174.274 136.061 174.152 136.75L175.066 136.911ZM174.208 134.301C173.513 133.558 172.535 133.098 171.325 132.884L171.163 133.798C172.235 133.987 173.008 134.378 173.53 134.936L174.208 134.301ZM171.325 132.884C170.079 132.664 168.879 132.759 167.735 133.174L168.05 134.046C169.034 133.69 170.069 133.605 171.163 133.798L171.325 132.884ZM167.729 133.176C166.616 133.596 165.654 134.285 164.845 135.232L165.551 135.835C166.265 134.999 167.099 134.406 168.056 134.044L167.729 133.176ZM165.486 135.169L159.568 130.505L158.993 131.234L164.911 135.898L165.486 135.169ZM159.634 131.17C161.137 129.403 163.041 128.156 165.358 127.427L165.08 126.541C162.604 127.32 160.548 128.663 158.927 130.569L159.634 131.17ZM165.358 127.427C167.668 126.7 170.339 126.593 173.385 127.13L173.547 126.216C170.39 125.66 167.563 125.76 165.08 126.541L165.358 127.427ZM173.385 127.13C176.807 127.734 179.373 128.928 181.133 130.675L181.788 130.016C179.853 128.095 177.09 126.841 173.547 126.216L173.385 127.13ZM181.139 130.68C182.908 132.382 183.569 134.432 183.135 136.886L184.049 137.047C184.537 134.293 183.778 131.93 181.783 130.011L181.139 130.68ZM183.135 136.886C182.932 138.033 182.558 139.003 182.024 139.805L182.796 140.319C183.413 139.393 183.827 138.299 184.049 137.047L183.135 136.886ZM182.027 139.8C181.48 140.6 180.878 141.251 180.222 141.757L180.79 142.492C181.532 141.918 182.2 141.193 182.793 140.323L182.027 139.8ZM180.221 141.758C179.576 142.259 178.737 142.822 177.699 143.446L178.177 144.242C179.234 143.606 180.106 143.022 180.79 142.491L180.221 141.758ZM177.703 143.444C176.546 144.124 175.653 144.746 175.04 145.31L175.67 145.992C176.211 145.493 177.04 144.91 178.173 144.244L177.703 143.444ZM175.049 145.303C174.393 145.879 173.987 146.622 173.83 147.509L174.745 147.671C174.867 146.978 175.173 146.429 175.661 146L175.049 145.303ZM174.368 147.133L166.556 145.755L166.394 146.67L174.206 148.047L174.368 147.133ZM168.41 158.03C167.078 157.795 166.081 157.202 165.379 156.265L164.635 156.822C165.495 157.97 166.713 158.673 168.248 158.944L168.41 158.03ZM165.383 156.271C164.68 155.299 164.437 154.247 164.643 153.085L163.729 152.924C163.478 154.336 163.783 155.643 164.631 156.816L165.383 156.271ZM164.643 153.085C164.855 151.886 165.432 150.999 166.375 150.386L165.868 149.608C164.696 150.371 163.983 151.489 163.729 152.924L164.643 153.085ZM166.369 150.39C167.342 149.777 168.496 149.575 169.865 149.816L170.027 148.902C168.469 148.627 167.074 148.85 165.874 149.604L166.369 150.39ZM169.865 149.816C171.234 150.057 172.248 150.642 172.952 151.551L173.687 150.981C172.819 149.863 171.584 149.176 170.027 148.902L169.865 149.816ZM172.952 151.551C173.655 152.456 173.903 153.487 173.692 154.68L174.606 154.842C174.861 153.402 174.557 152.103 173.687 150.981L172.952 151.551ZM173.692 154.68C173.486 155.842 172.896 156.748 171.901 157.42L172.421 158.189C173.621 157.378 174.356 156.254 174.606 154.842L173.692 154.68ZM171.908 157.416C170.929 158.055 169.774 158.27 168.41 158.03L168.248 158.944C169.81 159.219 171.21 158.98 172.415 158.193L171.908 157.416Z" fill="#202027" mask="url(#path-19-outside-5_17_6060)"/>
<rect x="0.202599" y="0.28958" width="96.1033" height="128.304" rx="19.75" transform="matrix(0.984808 0.173648 -0.174411 0.984673 235.424 88.7349)" fill="#BCEC30"/>
<rect x="0.202599" y="0.28958" width="96.1033" height="128.304" rx="19.75" transform="matrix(0.984808 0.173648 -0.174411 0.984673 235.424 88.7349)" stroke="#202027" stroke-width="0.5"/>
<mask id="path-22-outside-6_17_6060" maskUnits="userSpaceOnUse" x="249.911" y="137.17" width="40.6343" height="46.2756" fill="black">
<rect fill="white" x="249.911" y="137.17" width="40.6343" height="46.2756"/>
<path d="M266.064 165.07C266.385 163.257 267.047 161.84 268.051 160.821C269.061 159.765 270.453 158.664 272.226 157.518C273.452 156.724 274.376 156.046 274.999 155.483C275.629 154.883 276.011 154.203 276.146 153.441C276.333 152.39 276.027 151.476 275.229 150.699C274.475 149.893 273.39 149.365 271.975 149.116C270.525 148.86 269.14 148.971 267.821 149.449C266.538 149.933 265.425 150.728 264.481 151.833L257.146 146.052C259.083 143.776 261.536 142.17 264.507 141.236C267.478 140.301 270.885 140.173 274.73 140.851C279.046 141.612 282.349 143.129 284.639 145.403C286.972 147.646 287.853 150.382 287.281 153.61C287.018 155.096 286.529 156.375 285.816 157.446C285.109 158.481 284.322 159.333 283.456 160.003C282.632 160.643 281.571 161.353 280.273 162.134C278.854 162.969 277.786 163.715 277.071 164.375C276.362 164.997 275.921 165.799 275.748 166.778L266.064 165.07ZM268.362 180.285C266.585 179.971 265.212 179.168 264.245 177.876C263.283 176.547 262.944 175.085 263.226 173.489C263.515 171.857 264.315 170.614 265.626 169.761C266.973 168.914 268.553 168.65 270.366 168.97C272.18 169.29 273.574 170.078 274.548 171.334C275.522 172.591 275.865 174.035 275.576 175.667C275.293 177.262 274.472 178.52 273.112 179.439C271.759 180.323 270.176 180.604 268.362 180.285Z"/>
</mask>
<path d="M266.064 165.07C266.385 163.257 267.047 161.84 268.051 160.821C269.061 159.765 270.453 158.664 272.226 157.518C273.452 156.724 274.376 156.046 274.999 155.483C275.629 154.883 276.011 154.203 276.146 153.441C276.333 152.39 276.027 151.476 275.229 150.699C274.475 149.893 273.39 149.365 271.975 149.116C270.525 148.86 269.14 148.971 267.821 149.449C266.538 149.933 265.425 150.728 264.481 151.833L257.146 146.052C259.083 143.776 261.536 142.17 264.507 141.236C267.478 140.301 270.885 140.173 274.73 140.851C279.046 141.612 282.349 143.129 284.639 145.403C286.972 147.646 287.853 150.382 287.281 153.61C287.018 155.096 286.529 156.375 285.816 157.446C285.109 158.481 284.322 159.333 283.456 160.003C282.632 160.643 281.571 161.353 280.273 162.134C278.854 162.969 277.786 163.715 277.071 164.375C276.362 164.997 275.921 165.799 275.748 166.778L266.064 165.07ZM268.362 180.285C266.585 179.971 265.212 179.168 264.245 177.876C263.283 176.547 262.944 175.085 263.226 173.489C263.515 171.857 264.315 170.614 265.626 169.761C266.973 168.914 268.553 168.65 270.366 168.97C272.18 169.29 273.574 170.078 274.548 171.334C275.522 172.591 275.865 174.035 275.576 175.667C275.293 177.262 274.472 178.52 273.112 179.439C271.759 180.323 270.176 180.604 268.362 180.285Z" fill="white"/>
<path d="M266.064 165.07L265.607 164.99L265.526 165.447L265.983 165.527L266.064 165.07ZM268.051 160.821L268.382 161.146L268.386 161.141L268.051 160.821ZM272.226 157.518L272.478 157.908L272.479 157.908L272.226 157.518ZM274.999 155.483L275.311 155.827L275.319 155.819L274.999 155.483ZM275.229 150.699L274.89 151.017L274.898 151.024L274.905 151.032L275.229 150.699ZM267.821 149.449L267.663 149.013L267.657 149.015L267.821 149.449ZM264.481 151.833L264.194 152.198L264.544 152.474L264.834 152.134L264.481 151.833ZM257.146 146.052L256.792 145.751L256.48 146.119L256.858 146.417L257.146 146.052ZM264.507 141.236L264.646 141.678L264.507 141.236ZM284.639 145.403L284.312 145.732L284.317 145.737L284.639 145.403ZM285.816 157.446L286.199 157.708L286.202 157.703L285.816 157.446ZM283.456 160.003L283.172 159.636L283.171 159.637L283.456 160.003ZM280.273 162.134L280.508 162.534L280.512 162.532L280.273 162.134ZM277.071 164.375L277.378 164.723L277.386 164.716L277.071 164.375ZM275.748 166.778L275.667 167.235L276.124 167.315L276.205 166.858L275.748 166.778ZM264.245 177.876L263.868 178.148L263.873 178.154L264.245 177.876ZM265.626 169.761L265.379 169.368L265.373 169.372L265.626 169.761ZM274.548 171.334L274.181 171.619L274.548 171.334ZM273.112 179.439L273.366 179.828L273.372 179.824L273.112 179.439ZM266.521 165.151C266.831 163.404 267.461 162.082 268.382 161.146L267.72 160.495C266.634 161.599 265.94 163.11 265.607 164.99L266.521 165.151ZM268.386 161.141C269.363 160.12 270.723 159.042 272.478 157.908L271.975 157.128C270.183 158.286 268.759 159.409 267.715 160.5L268.386 161.141ZM272.479 157.908C273.712 157.109 274.66 156.415 275.31 155.827L274.688 155.138C274.092 155.677 273.191 156.34 271.974 157.129L272.479 157.908ZM275.319 155.819C276.012 155.16 276.449 154.393 276.604 153.522L275.689 153.361C275.574 154.013 275.247 154.607 274.679 155.147L275.319 155.819ZM276.604 153.522C276.818 152.311 276.456 151.245 275.554 150.366L274.905 151.032C275.598 151.706 275.847 152.468 275.689 153.361L276.604 153.522ZM275.569 150.382C274.727 149.483 273.54 148.92 272.056 148.659L271.895 149.573C273.24 149.81 274.222 150.303 274.89 151.017L275.569 150.382ZM272.056 148.659C270.53 148.389 269.062 148.505 267.663 149.013L267.979 149.885C269.217 149.436 270.52 149.33 271.895 149.573L272.056 148.659ZM267.657 149.015C266.297 149.528 265.12 150.371 264.128 151.532L264.834 152.134C265.73 151.085 266.78 150.338 267.985 149.883L267.657 149.015ZM264.769 151.469L257.434 145.687L256.858 146.417L264.194 152.198L264.769 151.469ZM257.5 146.353C259.377 144.146 261.755 142.588 264.646 141.678L264.368 140.793C261.317 141.753 258.788 143.406 256.792 145.751L257.5 146.353ZM264.646 141.678C267.53 140.771 270.86 140.639 274.649 141.308L274.811 140.393C270.911 139.706 267.426 139.831 264.368 140.793L264.646 141.678ZM274.649 141.308C278.904 142.058 282.109 143.545 284.312 145.732L284.966 145.073C282.589 142.713 279.187 141.165 274.811 140.393L274.649 141.308ZM284.317 145.737C286.537 147.872 287.369 150.451 286.824 153.529L287.738 153.69C288.336 150.313 287.407 147.421 284.961 145.068L284.317 145.737ZM286.824 153.529C286.57 154.963 286.102 156.18 285.43 157.189L286.202 157.703C286.957 156.571 287.466 155.229 287.738 153.69L286.824 153.529ZM285.433 157.185C284.749 158.185 283.995 159 283.172 159.636L283.739 160.37C284.65 159.667 285.469 158.777 286.199 157.708L285.433 157.185ZM283.171 159.637C282.366 160.261 281.322 160.961 280.034 161.737L280.512 162.532C281.819 161.745 282.897 161.025 283.74 160.369L283.171 159.637ZM280.038 161.734C278.607 162.575 277.507 163.342 276.756 164.033L277.386 164.716C278.066 164.089 279.1 163.362 280.508 162.534L280.038 161.734ZM276.765 164.026C275.972 164.723 275.481 165.62 275.291 166.697L276.205 166.858C276.361 165.977 276.752 165.272 277.377 164.723L276.765 164.026ZM275.829 166.321L266.145 164.613L265.983 165.527L275.667 167.235L275.829 166.321ZM268.443 179.827C266.767 179.532 265.505 178.784 264.616 177.597L263.873 178.154C264.92 179.552 266.403 180.41 268.281 180.742L268.443 179.827ZM264.621 177.603C263.732 176.375 263.423 175.04 263.683 173.57L262.769 173.408C262.464 175.129 262.834 176.719 263.868 178.148L264.621 177.603ZM263.683 173.57C263.952 172.056 264.683 170.929 265.879 170.15L265.373 169.372C263.947 170.3 263.079 171.658 262.769 173.408L263.683 173.57ZM265.873 170.154C267.107 169.378 268.566 169.124 270.285 169.427L270.447 168.513C268.539 168.177 266.838 168.45 265.379 169.368L265.873 170.154ZM270.285 169.427C272.004 169.73 273.288 170.468 274.181 171.619L274.915 171.05C273.859 169.688 272.355 168.849 270.447 168.513L270.285 169.427ZM274.181 171.619C275.071 172.767 275.386 174.077 275.119 175.586L276.033 175.747C276.344 173.992 275.973 172.414 274.915 171.05L274.181 171.619ZM275.119 175.586C274.858 177.056 274.109 178.205 272.852 179.055L273.372 179.824C274.835 178.835 275.728 177.468 276.033 175.747L275.119 175.586ZM272.859 179.051C271.618 179.86 270.158 180.13 268.443 179.827L268.281 180.742C270.193 181.079 271.9 180.785 273.366 179.828L272.859 179.051Z" fill="#202027" mask="url(#path-22-outside-6_17_6060)"/>
<rect x="0.202599" y="0.28958" width="96.1033" height="128.304" rx="19.75" transform="matrix(0.984808 0.173648 -0.174411 0.984673 336.144 106.495)" fill="#BCEC30"/>
<rect x="0.202599" y="0.28958" width="96.1033" height="128.304" rx="19.75" transform="matrix(0.984808 0.173648 -0.174411 0.984673 336.144 106.495)" stroke="#202027" stroke-width="0.5"/>
<rect x="0.202599" y="0.28958" width="96.1033" height="128.304" rx="19.75" transform="matrix(0.984808 0.173648 -0.174411 0.984673 -90.0704 167.79)" fill="#BCEC30"/>
<rect x="0.202599" y="0.28958" width="96.1033" height="128.304" rx="19.75" transform="matrix(0.984808 0.173648 -0.174411 0.984673 -90.0704 167.79)" stroke="#202027" stroke-width="0.5"/>
<rect x="0.202599" y="0.28958" width="96.1033" height="128.304" rx="19.75" transform="matrix(0.984808 0.173648 -0.174411 0.984673 10.6493 185.549)" fill="#BCEC30"/>
<rect x="0.202599" y="0.28958" width="96.1033" height="128.304" rx="19.75" transform="matrix(0.984808 0.173648 -0.174411 0.984673 10.6493 185.549)" stroke="#202027" stroke-width="0.5"/>
<mask id="path-27-outside-7_17_6060" maskUnits="userSpaceOnUse" x="25.1364" y="233.984" width="40.6343" height="46.2756" fill="black">
<rect fill="white" x="25.1364" y="233.984" width="40.6343" height="46.2756"/>
<path d="M41.2895 261.885C41.6106 260.071 42.273 258.655 43.2764 257.635C44.2863 256.579 45.6782 255.478 47.452 254.333C48.6772 253.539 49.6015 252.86 50.2249 252.297C50.8547 251.698 51.2371 251.017 51.372 250.256C51.5582 249.204 51.2526 248.29 50.4551 247.514C49.7002 246.707 48.6156 246.18 47.2011 245.93C45.7503 245.674 44.3655 245.785 43.0465 246.263C41.7639 246.748 40.6507 247.542 39.7069 248.648L32.3715 242.867C34.3082 240.59 36.7619 238.985 39.7326 238.05C42.7033 237.115 46.1109 236.987 49.9554 237.665C54.2714 238.426 57.5746 239.943 59.8648 242.217C62.1977 244.461 63.0783 247.196 62.5066 250.424C62.2433 251.911 61.7549 253.19 61.0416 254.261C60.3347 255.295 59.5479 256.148 58.6812 256.817C57.8572 257.457 56.7963 258.168 55.4986 258.949C54.0791 259.783 53.0118 260.53 52.2966 261.189C51.5879 261.812 51.1468 262.613 50.9733 263.592L41.2895 261.885ZM43.5878 277.099C41.8106 276.786 40.438 275.983 39.4701 274.69C38.5086 273.361 38.1692 271.899 38.4518 270.303C38.7409 268.671 39.5407 267.429 40.8513 266.575C42.1982 265.728 43.7784 265.465 45.5918 265.785C47.4053 266.104 48.7992 266.892 49.7735 268.149C50.7479 269.405 51.0905 270.849 50.8015 272.481C50.5188 274.077 49.6977 275.334 48.3379 276.254C46.9846 277.137 45.4012 277.419 43.5878 277.099Z"/>
</mask>
<path d="M41.2895 261.885C41.6106 260.071 42.273 258.655 43.2764 257.635C44.2863 256.579 45.6782 255.478 47.452 254.333C48.6772 253.539 49.6015 252.86 50.2249 252.297C50.8547 251.698 51.2371 251.017 51.372 250.256C51.5582 249.204 51.2526 248.29 50.4551 247.514C49.7002 246.707 48.6156 246.18 47.2011 245.93C45.7503 245.674 44.3655 245.785 43.0465 246.263C41.7639 246.748 40.6507 247.542 39.7069 248.648L32.3715 242.867C34.3082 240.59 36.7619 238.985 39.7326 238.05C42.7033 237.115 46.1109 236.987 49.9554 237.665C54.2714 238.426 57.5746 239.943 59.8648 242.217C62.1977 244.461 63.0783 247.196 62.5066 250.424C62.2433 251.911 61.7549 253.19 61.0416 254.261C60.3347 255.295 59.5479 256.148 58.6812 256.817C57.8572 257.457 56.7963 258.168 55.4986 258.949C54.0791 259.783 53.0118 260.53 52.2966 261.189C51.5879 261.812 51.1468 262.613 50.9733 263.592L41.2895 261.885ZM43.5878 277.099C41.8106 276.786 40.438 275.983 39.4701 274.69C38.5086 273.361 38.1692 271.899 38.4518 270.303C38.7409 268.671 39.5407 267.429 40.8513 266.575C42.1982 265.728 43.7784 265.465 45.5918 265.785C47.4053 266.104 48.7992 266.892 49.7735 268.149C50.7479 269.405 51.0905 270.849 50.8015 272.481C50.5188 274.077 49.6977 275.334 48.3379 276.254C46.9846 277.137 45.4012 277.419 43.5878 277.099Z" fill="white"/>
<path d="M41.2895 261.885L40.8323 261.804L40.7513 262.261L41.2085 262.342L41.2895 261.885ZM43.2764 257.635L43.6073 257.961L43.6119 257.956L43.2764 257.635ZM47.452 254.333L47.7037 254.722L47.7043 254.722L47.452 254.333ZM50.2249 252.297L50.5362 252.642L50.5449 252.633L50.2249 252.297ZM50.4551 247.514L50.116 247.831L50.1233 247.839L50.131 247.846L50.4551 247.514ZM43.0465 246.263L42.8886 245.827L42.8827 245.829L43.0465 246.263ZM39.7069 248.648L39.4193 249.012L39.7698 249.288L40.0599 248.949L39.7069 248.648ZM32.3715 242.867L32.018 242.566L31.7057 242.933L32.0839 243.231L32.3715 242.867ZM39.7326 238.05L39.8717 238.493L39.7326 238.05ZM59.8648 242.217L59.5374 242.547L59.5427 242.552L59.8648 242.217ZM61.0416 254.261L61.425 254.522L61.428 254.518L61.0416 254.261ZM58.6812 256.817L58.3974 256.45L58.3965 256.451L58.6812 256.817ZM55.4986 258.949L55.7337 259.349L55.7378 259.346L55.4986 258.949ZM52.2966 261.189L52.6031 261.538L52.6112 261.53L52.2966 261.189ZM50.9733 263.592L50.8924 264.049L51.3496 264.13L51.4305 263.673L50.9733 263.592ZM39.4701 274.69L39.0938 274.962L39.0984 274.968L39.4701 274.69ZM40.8513 266.575L40.6043 266.183L40.5981 266.187L40.8513 266.575ZM49.7735 268.149L49.4065 268.433L49.7735 268.149ZM48.3379 276.254L48.5916 276.642L48.5979 276.638L48.3379 276.254ZM41.7467 261.965C42.0561 260.218 42.6864 258.896 43.6073 257.961L42.9456 257.31C41.8596 258.413 41.1651 259.925 40.8323 261.804L41.7467 261.965ZM43.6119 257.956C44.5883 256.935 45.9482 255.856 47.7037 254.722L47.2002 253.943C45.4081 255.1 43.9843 256.223 42.9409 257.315L43.6119 257.956ZM47.7043 254.722C48.9375 253.923 49.8857 253.229 50.5361 252.642L49.9137 251.953C49.3174 252.492 48.4169 253.155 47.1997 253.943L47.7043 254.722ZM50.5449 252.633C51.2373 251.974 51.6749 251.207 51.8292 250.336L50.9148 250.175C50.7993 250.827 50.4722 251.421 49.9049 251.961L50.5449 252.633ZM51.8292 250.336C52.0436 249.126 51.6812 248.059 50.7791 247.181L50.131 247.846C50.8241 248.521 51.0729 249.282 50.9148 250.175L51.8292 250.336ZM50.7942 247.196C49.9526 246.297 48.7657 245.735 47.282 245.473L47.1201 246.387C48.4654 246.624 49.4479 247.117 50.116 247.831L50.7942 247.196ZM47.282 245.473C45.7554 245.204 44.2879 245.32 42.8886 245.827L43.2045 246.7C44.443 246.251 45.7452 246.145 47.1201 246.387L47.282 245.473ZM42.8827 245.829C41.5224 246.343 40.3454 247.185 39.3539 248.346L40.0599 248.949C40.956 247.9 42.0054 247.153 43.2103 246.698L42.8827 245.829ZM39.9945 248.283L32.6591 242.502L32.0839 243.231L39.4193 249.012L39.9945 248.283ZM32.7251 243.167C34.6026 240.96 36.9807 239.402 39.8717 238.493L39.5935 237.607C36.543 238.567 34.0138 240.22 32.018 242.566L32.7251 243.167ZM39.8717 238.493C42.7554 237.586 46.0851 237.454 49.8744 238.122L50.0364 237.208C46.1367 236.52 42.6511 236.645 39.5935 237.607L39.8717 238.493ZM49.8744 238.122C54.1299 238.872 57.3346 240.36 59.5375 242.546L60.1921 241.888C57.8145 239.527 54.413 237.98 50.0364 237.208L49.8744 238.122ZM59.5427 242.552C61.7625 244.687 62.5945 247.266 62.0494 250.343L62.9638 250.505C63.5621 247.127 62.6328 244.235 60.1868 241.882L59.5427 242.552ZM62.0494 250.343C61.7953 251.778 61.3274 252.994 60.6552 254.004L61.428 254.518C62.1825 253.385 62.6912 252.044 62.9638 250.505L62.0494 250.343ZM60.6583 253.999C59.9749 254.999 59.2205 255.814 58.3974 256.45L58.9651 257.185C59.8753 256.481 60.6945 255.591 61.425 254.522L60.6583 253.999ZM58.3965 256.451C57.5919 257.076 56.5477 257.776 55.2594 258.551L55.7378 259.346C57.045 258.56 58.1225 257.839 58.9659 257.184L58.3965 256.451ZM55.2635 258.549C53.8322 259.39 52.7326 260.156 51.982 260.848L52.6112 261.53C53.2911 260.903 54.3261 260.176 55.7337 259.349L55.2635 258.549ZM51.9902 260.84C51.1977 261.537 50.7069 262.435 50.5161 263.512L51.4305 263.673C51.5866 262.791 51.978 262.087 52.6031 261.538L51.9902 260.84ZM51.0543 263.135L41.3704 261.427L41.2085 262.342L50.8924 264.049L51.0543 263.135ZM43.6687 276.642C41.993 276.346 40.7306 275.599 39.8419 274.412L39.0984 274.968C40.1454 276.367 41.6282 277.225 43.5068 277.556L43.6687 276.642ZM39.8464 274.418C38.9575 273.189 38.6486 271.854 38.909 270.384L37.9946 270.223C37.6898 271.944 38.0598 273.533 39.0939 274.962L39.8464 274.418ZM38.909 270.384C39.1772 268.87 39.9087 267.743 41.1045 266.964L40.5981 266.187C39.1727 267.115 38.3046 268.473 37.9946 270.223L38.909 270.384ZM41.0983 266.968C42.3324 266.192 43.7918 265.939 45.5109 266.242L45.6728 265.327C43.765 264.991 42.0641 265.265 40.6043 266.183L41.0983 266.968ZM45.5109 266.242C47.2299 266.545 48.5138 267.282 49.4065 268.433L50.1405 267.864C49.0846 266.503 47.5807 265.664 45.6728 265.327L45.5109 266.242ZM49.4065 268.433C50.2968 269.581 50.6116 270.891 50.3443 272.4L51.2587 272.562C51.5695 270.807 51.1989 269.229 50.1405 267.864L49.4065 268.433ZM50.3443 272.4C50.0839 273.87 49.335 275.019 48.078 275.869L48.5979 276.638C50.0603 275.649 50.9538 274.283 51.2587 272.562L50.3443 272.4ZM48.0843 275.865C46.8437 276.675 45.3835 276.944 43.6687 276.642L43.5068 277.556C45.4189 277.893 47.1255 277.599 48.5915 276.642L48.0843 275.865Z" fill="#202027" mask="url(#path-27-outside-7_17_6060)"/>
<rect x="0.202599" y="0.28958" width="96.1033" height="128.304" rx="19.75" transform="matrix(0.984808 0.173648 -0.174411 0.984673 111.37 203.309)" fill="#BCEC30"/>
<rect x="0.202599" y="0.28958" width="96.1033" height="128.304" rx="19.75" transform="matrix(0.984808 0.173648 -0.174411 0.984673 111.37 203.309)" stroke="#202027" stroke-width="0.5"/>
<mask id="path-30-outside-8_17_6060" maskUnits="userSpaceOnUse" x="125.857" y="251.744" width="40.6343" height="46.2756" fill="black">
<rect fill="white" x="125.857" y="251.744" width="40.6343" height="46.2756"/>
<path d="M142.01 279.644C142.331 277.831 142.994 276.415 143.997 275.395C145.007 274.339 146.399 273.238 148.173 272.092C149.398 271.299 150.322 270.62 150.946 270.057C151.575 269.457 151.958 268.777 152.093 268.015C152.279 266.964 151.973 266.05 151.176 265.273C150.421 264.467 149.336 263.939 147.922 263.69C146.471 263.434 145.086 263.545 143.767 264.023C142.485 264.507 141.371 265.302 140.428 266.407L133.092 260.626C135.029 258.35 137.483 256.744 140.453 255.81C143.424 254.875 146.832 254.747 150.676 255.425C154.992 256.186 158.295 257.703 160.585 259.977C162.918 262.221 163.799 264.956 163.227 268.184C162.964 269.671 162.476 270.949 161.762 272.02C161.055 273.055 160.269 273.907 159.402 274.577C158.578 275.217 157.517 275.928 156.219 276.709C154.8 277.543 153.733 278.289 153.017 278.949C152.309 279.572 151.867 280.373 151.694 281.352L142.01 279.644ZM144.308 294.859C142.531 294.545 141.159 293.742 140.191 292.45C139.229 291.121 138.89 289.659 139.173 288.063C139.462 286.431 140.261 285.189 141.572 284.335C142.919 283.488 144.499 283.224 146.313 283.544C148.126 283.864 149.52 284.652 150.494 285.908C151.469 287.165 151.811 288.609 151.522 290.241C151.24 291.836 150.418 293.094 149.059 294.013C147.705 294.897 146.122 295.178 144.308 294.859Z"/>
</mask>
<path d="M142.01 279.644C142.331 277.831 142.994 276.415 143.997 275.395C145.007 274.339 146.399 273.238 148.173 272.092C149.398 271.299 150.322 270.62 150.946 270.057C151.575 269.457 151.958 268.777 152.093 268.015C152.279 266.964 151.973 266.05 151.176 265.273C150.421 264.467 149.336 263.939 147.922 263.69C146.471 263.434 145.086 263.545 143.767 264.023C142.485 264.507 141.371 265.302 140.428 266.407L133.092 260.626C135.029 258.35 137.483 256.744 140.453 255.81C143.424 254.875 146.832 254.747 150.676 255.425C154.992 256.186 158.295 257.703 160.585 259.977C162.918 262.221 163.799 264.956 163.227 268.184C162.964 269.671 162.476 270.949 161.762 272.02C161.055 273.055 160.269 273.907 159.402 274.577C158.578 275.217 157.517 275.928 156.219 276.709C154.8 277.543 153.733 278.289 153.017 278.949C152.309 279.572 151.867 280.373 151.694 281.352L142.01 279.644ZM144.308 294.859C142.531 294.545 141.159 293.742 140.191 292.45C139.229 291.121 138.89 289.659 139.173 288.063C139.462 286.431 140.261 285.189 141.572 284.335C142.919 283.488 144.499 283.224 146.313 283.544C148.126 283.864 149.52 284.652 150.494 285.908C151.469 287.165 151.811 288.609 151.522 290.241C151.24 291.836 150.418 293.094 149.059 294.013C147.705 294.897 146.122 295.178 144.308 294.859Z" fill="white"/>
<path d="M142.01 279.644L141.553 279.564L141.472 280.021L141.929 280.101L142.01 279.644ZM143.997 275.395L144.328 275.72L144.333 275.716L143.997 275.395ZM148.173 272.092L148.424 272.482L148.425 272.482L148.173 272.092ZM150.946 270.057L151.257 270.401L151.266 270.393L150.946 270.057ZM151.176 265.273L150.837 265.591L150.844 265.599L150.852 265.606L151.176 265.273ZM143.767 264.023L143.609 263.587L143.603 263.589L143.767 264.023ZM140.428 266.407L140.14 266.772L140.491 267.048L140.781 266.709L140.428 266.407ZM133.092 260.626L132.739 260.326L132.426 260.693L132.805 260.991L133.092 260.626ZM140.453 255.81L140.592 256.253L140.453 255.81ZM160.585 259.977L160.258 260.306L160.263 260.311L160.585 259.977ZM161.762 272.02L162.146 272.282L162.149 272.277L161.762 272.02ZM159.402 274.577L159.118 274.21L159.117 274.211L159.402 274.577ZM156.219 276.709L156.454 277.109L156.458 277.106L156.219 276.709ZM153.017 278.949L153.324 279.297L153.332 279.29L153.017 278.949ZM151.694 281.352L151.613 281.809L152.07 281.89L152.151 281.432L151.694 281.352ZM140.191 292.45L139.815 292.722L139.819 292.728L140.191 292.45ZM141.572 284.335L141.325 283.942L141.319 283.946L141.572 284.335ZM150.494 285.908L150.127 286.193L150.494 285.908ZM149.059 294.013L149.312 294.402L149.319 294.398L149.059 294.013ZM142.467 279.725C142.777 277.978 143.407 276.656 144.328 275.72L143.666 275.069C142.58 276.173 141.886 277.684 141.553 279.564L142.467 279.725ZM144.333 275.716C145.309 274.695 146.669 273.616 148.424 272.482L147.921 271.702C146.129 272.86 144.705 273.983 143.662 275.074L144.333 275.716ZM148.425 272.482C149.658 271.683 150.606 270.989 151.257 270.401L150.634 269.713C150.038 270.251 149.138 270.914 147.92 271.703L148.425 272.482ZM151.266 270.393C151.958 269.734 152.396 268.967 152.55 268.096L151.635 267.935C151.52 268.587 151.193 269.181 150.626 269.721L151.266 270.393ZM152.55 268.096C152.764 266.885 152.402 265.819 151.5 264.941L150.852 265.606C151.545 266.281 151.794 267.042 151.635 267.935L152.55 268.096ZM151.515 264.956C150.673 264.057 149.486 263.494 148.003 263.233L147.841 264.147C149.186 264.384 150.169 264.877 150.837 265.591L151.515 264.956ZM148.003 263.233C146.476 262.964 145.009 263.08 143.609 263.587L143.925 264.459C145.164 264.011 146.466 263.905 147.841 264.147L148.003 263.233ZM143.603 263.589C142.243 264.103 141.066 264.945 140.075 266.106L140.781 266.709C141.677 265.659 142.726 264.912 143.931 264.457L143.603 263.589ZM140.715 266.043L133.38 260.262L132.805 260.991L140.14 266.772L140.715 266.043ZM133.446 260.927C135.323 258.72 137.701 257.162 140.592 256.253L140.314 255.367C137.264 256.327 134.734 257.98 132.739 260.326L133.446 260.927ZM140.592 256.253C143.476 255.345 146.806 255.214 150.595 255.882L150.757 254.968C146.857 254.28 143.372 254.405 140.314 255.367L140.592 256.253ZM150.595 255.882C154.851 256.632 158.055 258.119 160.258 260.306L160.913 259.647C158.535 257.287 155.134 255.739 150.757 254.968L150.595 255.882ZM160.263 260.311C162.483 262.446 163.315 265.026 162.77 268.103L163.685 268.264C164.283 264.887 163.354 261.995 160.908 259.642L160.263 260.311ZM162.77 268.103C162.516 269.538 162.048 270.754 161.376 271.763L162.149 272.277C162.903 271.145 163.412 269.803 163.685 268.264L162.77 268.103ZM161.379 271.759C160.696 272.759 159.941 273.574 159.118 274.21L159.686 274.944C160.596 274.241 161.415 273.351 162.146 272.282L161.379 271.759ZM159.117 274.211C158.313 274.836 157.268 275.536 155.98 276.311L156.458 277.106C157.766 276.32 158.843 275.599 159.687 274.944L159.117 274.211ZM155.984 276.308C154.553 277.15 153.453 277.916 152.703 278.608L153.332 279.29C154.012 278.663 155.047 277.936 156.454 277.109L155.984 276.308ZM152.711 278.6C151.918 279.297 151.428 280.194 151.237 281.271L152.151 281.432C152.307 280.551 152.699 279.847 153.324 279.297L152.711 278.6ZM151.775 280.895L142.091 279.187L141.929 280.101L151.613 281.809L151.775 280.895ZM144.389 294.402C142.714 294.106 141.451 293.358 140.563 292.171L139.819 292.728C140.866 294.126 142.349 294.985 144.228 295.316L144.389 294.402ZM140.567 292.178C139.678 290.949 139.369 289.614 139.63 288.144L138.715 287.982C138.41 289.704 138.78 291.293 139.815 292.722L140.567 292.178ZM139.63 288.144C139.898 286.63 140.629 285.503 141.825 284.724L141.319 283.946C139.893 284.874 139.025 286.233 138.715 287.982L139.63 288.144ZM141.819 284.728C143.053 283.952 144.513 283.698 146.232 284.001L146.394 283.087C144.486 282.751 142.785 283.024 141.325 283.942L141.819 284.728ZM146.232 284.001C147.951 284.305 149.235 285.042 150.127 286.193L150.861 285.624C149.805 284.262 148.301 283.424 146.394 283.087L146.232 284.001ZM150.127 286.193C151.018 287.341 151.332 288.651 151.065 290.16L151.979 290.321C152.29 288.566 151.92 286.988 150.861 285.624L150.127 286.193ZM151.065 290.16C150.805 291.63 150.056 292.779 148.799 293.629L149.319 294.398C150.781 293.409 151.675 292.042 151.979 290.321L151.065 290.16ZM148.805 293.625C147.564 294.434 146.104 294.704 144.389 294.402L144.228 295.316C146.14 295.653 147.846 295.359 149.312 294.402L148.805 293.625Z" fill="#202027" mask="url(#path-30-outside-8_17_6060)"/>
<rect x="0.202599" y="0.28958" width="96.1033" height="128.304" rx="19.75" transform="matrix(0.984808 0.173648 -0.174411 0.984673 212.09 221.069)" fill="#BCEC30"/>
<rect x="0.202599" y="0.28958" width="96.1033" height="128.304" rx="19.75" transform="matrix(0.984808 0.173648 -0.174411 0.984673 212.09 221.069)" stroke="#202027" stroke-width="0.5"/>
<mask id="path-33-outside-9_17_6060" maskUnits="userSpaceOnUse" x="231.214" y="273.153" width="32.5198" height="38.1674" fill="black">
<rect fill="white" x="231.214" y="273.153" width="32.5198" height="38.1674"/>
<path d="M243.861 296.306C244.12 294.843 244.654 293.7 245.464 292.878C246.278 292.026 247.401 291.138 248.832 290.213C249.821 289.573 250.566 289.026 251.069 288.571C251.577 288.088 251.886 287.539 251.995 286.924C252.145 286.076 251.898 285.339 251.255 284.712C250.646 284.062 249.771 283.636 248.63 283.435C247.46 283.228 246.342 283.318 245.278 283.704C244.243 284.094 243.345 284.735 242.584 285.627L236.666 280.963C238.229 279.127 240.208 277.832 242.605 277.078C245.001 276.323 247.75 276.22 250.852 276.767C254.334 277.381 256.999 278.605 258.846 280.439C260.728 282.249 261.439 284.456 260.978 287.06C260.765 288.26 260.371 289.291 259.796 290.155C259.225 290.99 258.591 291.678 257.892 292.218C257.227 292.734 256.371 293.308 255.324 293.938C254.179 294.611 253.318 295.213 252.741 295.745C252.169 296.247 251.813 296.894 251.673 297.684L243.861 296.306ZM245.715 308.58C244.281 308.327 243.174 307.68 242.393 306.637C241.617 305.565 241.343 304.385 241.571 303.098C241.805 301.781 242.45 300.779 243.507 300.09C244.594 299.407 245.869 299.194 247.332 299.452C248.795 299.71 249.919 300.346 250.705 301.36C251.491 302.373 251.768 303.538 251.535 304.855C251.307 306.142 250.644 307.156 249.547 307.898C248.455 308.611 247.178 308.838 245.715 308.58Z"/>
</mask>
<path d="M243.861 296.306C244.12 294.843 244.654 293.7 245.464 292.878C246.278 292.026 247.401 291.138 248.832 290.213C249.821 289.573 250.566 289.026 251.069 288.571C251.577 288.088 251.886 287.539 251.995 286.924C252.145 286.076 251.898 285.339 251.255 284.712C250.646 284.062 249.771 283.636 248.63 283.435C247.46 283.228 246.342 283.318 245.278 283.704C244.243 284.094 243.345 284.735 242.584 285.627L236.666 280.963C238.229 279.127 240.208 277.832 242.605 277.078C245.001 276.323 247.75 276.22 250.852 276.767C254.334 277.381 256.999 278.605 258.846 280.439C260.728 282.249 261.439 284.456 260.978 287.06C260.765 288.26 260.371 289.291 259.796 290.155C259.225 290.99 258.591 291.678 257.892 292.218C257.227 292.734 256.371 293.308 255.324 293.938C254.179 294.611 253.318 295.213 252.741 295.745C252.169 296.247 251.813 296.894 251.673 297.684L243.861 296.306ZM245.715 308.58C244.281 308.327 243.174 307.68 242.393 306.637C241.617 305.565 241.343 304.385 241.571 303.098C241.805 301.781 242.45 300.779 243.507 300.09C244.594 299.407 245.869 299.194 247.332 299.452C248.795 299.71 249.919 300.346 250.705 301.36C251.491 302.373 251.768 303.538 251.535 304.855C251.307 306.142 250.644 307.156 249.547 307.898C248.455 308.611 247.178 308.838 245.715 308.58Z" fill="white"/>
<path d="M243.861 296.306L243.404 296.225L243.323 296.683L243.78 296.763L243.861 296.306ZM245.464 292.878L245.795 293.203L245.799 293.198L245.464 292.878ZM248.832 290.213L249.084 290.603L249.085 290.603L248.832 290.213ZM251.069 288.571L251.381 288.916L251.389 288.907L251.069 288.571ZM251.255 284.712L250.916 285.03L250.923 285.037L250.931 285.045L251.255 284.712ZM245.278 283.704L245.12 283.267L245.114 283.269L245.278 283.704ZM242.584 285.627L242.296 285.992L242.647 286.268L242.937 285.928L242.584 285.627ZM236.666 280.963L236.313 280.663L236 281.03L236.379 281.328L236.666 280.963ZM242.605 277.078L242.744 277.52L242.744 277.52L242.605 277.078ZM258.846 280.439L258.519 280.769L258.524 280.774L258.846 280.439ZM259.796 290.155L260.179 290.417L260.182 290.412L259.796 290.155ZM257.892 292.218L257.608 291.851L257.607 291.852L257.892 292.218ZM255.324 293.938L255.559 294.338L255.563 294.335L255.324 293.938ZM252.741 295.745L253.047 296.093L253.055 296.086L252.741 295.745ZM251.673 297.684L251.592 298.141L252.049 298.221L252.13 297.764L251.673 297.684ZM242.393 306.637L242.017 306.909L242.021 306.915L242.393 306.637ZM243.507 300.09L243.26 299.697L243.254 299.701L243.507 300.09ZM250.705 301.36L250.338 301.644L250.705 301.36ZM249.547 307.898L249.801 308.287L249.807 308.283L249.547 307.898ZM244.318 296.387C244.565 294.99 245.068 293.942 245.795 293.203L245.133 292.552C244.241 293.459 243.674 294.697 243.404 296.225L244.318 296.387ZM245.799 293.198C246.58 292.381 247.671 291.516 249.084 290.603L248.581 289.824C247.131 290.76 245.976 291.67 245.128 292.557L245.799 293.198ZM249.085 290.603C250.081 289.957 250.851 289.394 251.381 288.916L250.758 288.227C250.282 288.657 249.56 289.189 248.58 289.824L249.085 290.603ZM251.389 288.907C251.96 288.364 252.324 287.729 252.452 287.005L251.538 286.844C251.448 287.349 251.195 287.811 250.749 288.235L251.389 288.907ZM252.452 287.005C252.63 285.998 252.327 285.108 251.579 284.38L250.931 285.045C251.47 285.569 251.66 286.154 251.538 286.844L252.452 287.005ZM251.594 284.395C250.898 283.652 249.921 283.191 248.711 282.978L248.549 283.892C249.621 284.081 250.394 284.472 250.916 285.03L251.594 284.395ZM248.711 282.978C247.465 282.758 246.265 282.852 245.12 283.267L245.436 284.14C246.42 283.783 247.454 283.699 248.549 283.892L248.711 282.978ZM245.114 283.269C244.002 283.689 243.04 284.378 242.231 285.326L242.937 285.928C243.651 285.093 244.485 284.499 245.442 284.138L245.114 283.269ZM242.872 285.262L236.954 280.599L236.379 281.328L242.296 285.992L242.872 285.262ZM237.02 281.264C238.523 279.497 240.427 278.249 242.744 277.52L242.466 276.635C239.989 277.414 237.934 278.757 236.313 280.663L237.02 281.264ZM242.744 277.52C245.053 276.794 247.725 276.687 250.771 277.224L250.933 276.31C247.776 275.753 244.949 275.853 242.466 276.635L242.744 277.52ZM250.771 277.224C254.192 277.827 256.759 279.021 258.519 280.769L259.174 280.11C257.239 278.189 254.476 276.934 250.933 276.31L250.771 277.224ZM258.524 280.774C260.293 282.475 260.955 284.526 260.52 286.98L261.435 287.141C261.923 284.387 261.164 282.024 259.168 280.105L258.524 280.774ZM260.52 286.98C260.317 288.127 259.944 289.096 259.409 289.898L260.182 290.412C260.799 289.487 261.213 288.392 261.435 287.141L260.52 286.98ZM259.412 289.894C258.866 290.694 258.263 291.344 257.608 291.851L258.175 292.585C258.918 292.011 259.585 291.286 260.179 290.417L259.412 289.894ZM257.607 291.852C256.961 292.353 256.122 292.916 255.085 293.54L255.563 294.335C256.62 293.7 257.492 293.116 258.176 292.585L257.607 291.852ZM255.089 293.537C253.932 294.217 253.038 294.839 252.426 295.404L253.055 296.086C253.597 295.587 254.426 295.004 255.559 294.338L255.089 293.537ZM252.434 295.396C251.779 295.972 251.373 296.715 251.216 297.603L252.13 297.764C252.253 297.072 252.559 296.522 253.047 296.093L252.434 295.396ZM251.754 297.226L243.942 295.849L243.78 296.763L251.592 298.141L251.754 297.226ZM245.796 308.123C244.464 307.888 243.466 307.296 242.765 306.358L242.021 306.915C242.881 308.064 244.099 308.767 245.634 309.037L245.796 308.123ZM242.769 306.365C242.066 305.393 241.823 304.34 242.029 303.178L241.114 303.017C240.864 304.43 241.168 305.737 242.017 306.909L242.769 306.365ZM242.029 303.178C242.241 301.98 242.818 301.093 243.76 300.479L243.254 299.701C242.082 300.465 241.368 301.583 241.114 303.017L242.029 303.178ZM243.754 300.483C244.728 299.871 245.882 299.668 247.251 299.909L247.413 298.995C245.855 298.721 244.46 298.943 243.26 299.697L243.754 300.483ZM247.251 299.909C248.619 300.151 249.634 300.736 250.338 301.644L251.072 301.075C250.205 299.956 248.97 299.27 247.413 298.995L247.251 299.909ZM250.338 301.644C251.04 302.549 251.289 303.58 251.077 304.774L251.992 304.935C252.247 303.496 251.942 302.197 251.072 301.075L250.338 301.644ZM251.077 304.774C250.872 305.936 250.281 306.841 249.287 307.514L249.807 308.283C251.007 307.471 251.741 306.348 251.992 304.935L251.077 304.774ZM249.293 307.51C248.314 308.149 247.16 308.364 245.796 308.123L245.634 309.037C247.196 309.313 248.596 309.073 249.801 308.287L249.293 307.51Z" fill="#202027" mask="url(#path-33-outside-9_17_6060)"/>
<rect x="0.202599" y="0.28958" width="96.1033" height="128.304" rx="19.75" transform="matrix(0.984808 0.173648 -0.174411 0.984673 312.81 238.829)" fill="#BCEC30"/>
<rect x="0.202599" y="0.28958" width="96.1033" height="128.304" rx="19.75" transform="matrix(0.984808 0.173648 -0.174411 0.984673 312.81 238.829)" stroke="#202027" stroke-width="0.5"/>
<g filter="url(#filter0_d_17_6060)">
<rect width="125.343" height="167.124" rx="20" transform="matrix(0.984808 0.173648 -0.174411 0.984673 123.897 49.5708)" fill="#E1FF8F"/>
<rect x="-0.202599" y="-0.28958" width="125.843" height="167.624" rx="20.25" transform="matrix(0.984808 0.173648 -0.174411 0.984673 123.844 49.6015)" stroke="#202027" stroke-width="0.5"/>
<rect x="-0.202599" y="-0.28958" width="125.843" height="167.624" rx="20.25" transform="matrix(0.984808 0.173648 -0.174411 0.984673 123.844 49.6015)" stroke="black" stroke-opacity="0.2" stroke-width="0.5"/>
</g>
<mask id="path-38-outside-10_17_6060" maskUnits="userSpaceOnUse" x="142.296" y="111.394" width="53.0985" height="62.7822" fill="black">
<rect fill="white" x="142.296" y="111.394" width="53.0985" height="62.7822"/>
<path d="M163.293 149.135C163.721 146.717 164.604 144.829 165.942 143.469C167.289 142.061 169.145 140.593 171.51 139.066C173.143 138.007 174.376 137.103 175.207 136.352C176.047 135.552 176.556 134.645 176.736 133.63C176.985 132.227 176.577 131.009 175.514 129.974C174.507 128.899 173.061 128.195 171.175 127.862C169.241 127.521 167.394 127.669 165.636 128.307C163.926 128.952 162.441 130.012 161.183 131.486L151.402 123.777C153.985 120.742 157.256 118.602 161.217 117.356C165.178 116.109 169.722 115.938 174.848 116.842C180.602 117.857 185.006 119.88 188.06 122.911C191.171 125.903 192.345 129.551 191.583 133.854C191.231 135.837 190.58 137.542 189.629 138.97C188.687 140.349 187.638 141.485 186.482 142.379C185.383 143.232 183.969 144.179 182.238 145.221C180.346 146.333 178.923 147.328 177.969 148.207C177.024 149.038 176.436 150.106 176.205 151.412L163.293 149.135ZM166.357 169.421C163.988 169.003 162.158 167.932 160.867 166.209C159.585 164.437 159.133 162.487 159.509 160.36C159.895 158.184 160.961 156.527 162.709 155.389C164.505 154.26 166.612 153.909 169.029 154.335C171.447 154.761 173.306 155.812 174.605 157.487C175.904 159.162 176.361 161.088 175.976 163.263C175.599 165.391 174.504 167.068 172.691 168.294C170.887 169.471 168.775 169.847 166.357 169.421Z"/>
</mask>
<path d="M163.293 149.135C163.721 146.717 164.604 144.829 165.942 143.469C167.289 142.061 169.145 140.593 171.51 139.066C173.143 138.007 174.376 137.103 175.207 136.352C176.047 135.552 176.556 134.645 176.736 133.63C176.985 132.227 176.577 131.009 175.514 129.974C174.507 128.899 173.061 128.195 171.175 127.862C169.241 127.521 167.394 127.669 165.636 128.307C163.926 128.952 162.441 130.012 161.183 131.486L151.402 123.777C153.985 120.742 157.256 118.602 161.217 117.356C165.178 116.109 169.722 115.938 174.848 116.842C180.602 117.857 185.006 119.88 188.06 122.911C191.171 125.903 192.345 129.551 191.583 133.854C191.231 135.837 190.58 137.542 189.629 138.97C188.687 140.349 187.638 141.485 186.482 142.379C185.383 143.232 183.969 144.179 182.238 145.221C180.346 146.333 178.923 147.328 177.969 148.207C177.024 149.038 176.436 150.106 176.205 151.412L163.293 149.135ZM166.357 169.421C163.988 169.003 162.158 167.932 160.867 166.209C159.585 164.437 159.133 162.487 159.509 160.36C159.895 158.184 160.961 156.527 162.709 155.389C164.505 154.26 166.612 153.909 169.029 154.335C171.447 154.761 173.306 155.812 174.605 157.487C175.904 159.162 176.361 161.088 175.976 163.263C175.599 165.391 174.504 167.068 172.691 168.294C170.887 169.471 168.775 169.847 166.357 169.421Z" fill="white"/>
<path d="M163.293 149.135L162.801 149.048L162.713 149.54L163.206 149.627L163.293 149.135ZM165.942 143.469L166.299 143.819L166.304 143.814L165.942 143.469ZM171.51 139.066L171.781 139.485L171.781 139.485L171.51 139.066ZM175.207 136.352L175.542 136.723L175.552 136.714L175.207 136.352ZM175.514 129.974L175.149 130.315L175.157 130.324L175.165 130.332L175.514 129.974ZM165.636 128.307L165.466 127.837L165.459 127.839L165.636 128.307ZM161.183 131.486L160.873 131.878L161.251 132.176L161.563 131.81L161.183 131.486ZM151.402 123.777L151.022 123.454L150.685 123.849L151.093 124.17L151.402 123.777ZM161.217 117.356L161.367 117.832L161.217 117.356ZM188.06 122.911L187.708 123.266L187.713 123.272L188.06 122.911ZM189.629 138.97L190.042 139.251L190.045 139.246L189.629 138.97ZM186.482 142.379L186.176 141.983L186.175 141.984L186.482 142.379ZM182.238 145.221L182.492 145.651L182.496 145.649L182.238 145.221ZM177.969 148.207L178.299 148.583L178.308 148.575L177.969 148.207ZM176.205 151.412L176.118 151.904L176.61 151.991L176.697 151.498L176.205 151.412ZM160.867 166.209L160.462 166.502L160.467 166.509L160.867 166.209ZM162.709 155.389L162.443 154.966L162.436 154.971L162.709 155.389ZM174.605 157.487L174.21 157.793L174.605 157.487ZM172.691 168.294L172.964 168.712L172.971 168.708L172.691 168.294ZM163.785 149.222C164.201 146.875 165.05 145.089 166.299 143.819L165.586 143.119C164.159 144.569 163.241 146.559 162.801 149.048L163.785 149.222ZM166.304 143.814C167.614 142.444 169.435 141 171.781 139.485L171.239 138.646C168.854 140.186 166.964 141.678 165.581 143.124L166.304 143.814ZM171.781 139.485C173.424 138.421 174.682 137.5 175.542 136.723L174.872 135.981C174.07 136.706 172.863 137.593 171.238 138.646L171.781 139.485ZM175.552 136.714C176.459 135.85 177.028 134.85 177.229 133.716L176.244 133.543C176.085 134.44 175.635 135.255 174.862 135.99L175.552 136.714ZM177.229 133.716C177.507 132.143 177.039 130.76 175.863 129.615L175.165 130.332C176.116 131.257 176.462 132.312 176.244 133.543L177.229 133.716ZM175.879 129.632C174.779 128.457 173.223 127.716 171.262 127.37L171.088 128.355C172.899 128.674 174.236 129.34 175.149 130.315L175.879 129.632ZM171.262 127.37C169.246 127.014 167.311 127.168 165.466 127.837L165.806 128.777C167.478 128.171 169.235 128.028 171.088 128.355L171.262 127.37ZM165.459 127.839C163.665 128.516 162.112 129.627 160.803 131.161L161.563 131.81C162.77 130.397 164.186 129.389 165.812 128.774L165.459 127.839ZM161.493 131.093L151.712 123.385L151.093 124.17L160.873 131.878L161.493 131.093ZM151.783 124.101C154.302 121.141 157.492 119.052 161.367 117.832L161.067 116.879C157.021 118.152 153.668 120.344 151.022 123.454L151.783 124.101ZM161.367 117.832C165.234 116.616 169.694 116.441 174.76 117.334L174.935 116.35C169.749 115.435 165.122 115.603 161.067 116.879L161.367 117.832ZM174.76 117.334C180.45 118.338 184.748 120.328 187.708 123.266L188.413 122.557C185.265 119.432 180.755 117.376 174.935 116.35L174.76 117.334ZM187.713 123.272C190.702 126.146 191.824 129.626 191.09 133.767L192.075 133.941C192.866 129.476 191.639 125.66 188.407 122.551L187.713 123.272ZM191.09 133.767C190.749 135.693 190.12 137.331 189.213 138.693L190.045 139.246C191.041 137.752 191.714 135.98 192.075 133.941L191.09 133.767ZM189.216 138.688C188.299 140.03 187.285 141.126 186.176 141.983L186.788 142.774C187.99 141.845 189.074 140.668 190.042 139.251L189.216 138.688ZM186.175 141.984C185.098 142.821 183.701 143.757 181.981 144.792L182.496 145.649C184.237 144.602 185.669 143.643 186.789 142.773L186.175 141.984ZM181.985 144.79C180.08 145.909 178.622 146.926 177.63 147.84L178.308 148.575C179.224 147.731 180.612 146.756 182.492 145.651L181.985 144.79ZM177.639 147.832C176.604 148.742 175.962 149.914 175.712 151.325L176.697 151.498C176.91 150.298 177.444 149.334 178.299 148.583L177.639 147.832ZM176.292 150.919L163.38 148.643L163.206 149.627L176.118 151.904L176.292 150.919ZM166.445 168.928C164.184 168.53 162.473 167.519 161.268 165.909L160.467 166.509C161.843 168.346 163.791 169.476 166.27 169.913L166.445 168.928ZM161.272 165.916C160.069 164.252 159.649 162.439 160.002 160.447L159.017 160.273C158.616 162.536 159.102 164.622 160.462 166.502L161.272 165.916ZM160.002 160.447C160.365 158.398 161.358 156.866 162.982 155.808L162.436 154.971C160.565 156.189 159.425 157.97 159.017 160.273L160.002 160.447ZM162.975 155.812C164.649 154.76 166.626 154.419 168.942 154.827L169.117 153.843C166.597 153.398 164.36 153.76 162.443 154.966L162.975 155.812ZM168.942 154.827C171.259 155.236 172.999 156.232 174.21 157.793L175 157.18C173.613 155.392 171.636 154.287 169.117 153.843L168.942 154.827ZM174.21 157.793C175.418 159.352 175.845 161.133 175.483 163.177L176.468 163.35C176.877 161.042 176.39 158.972 175 157.18L174.21 157.793ZM175.483 163.177C175.13 165.169 174.113 166.728 172.411 167.88L172.971 168.708C174.894 167.407 176.067 165.613 176.468 163.35L175.483 163.177ZM172.418 167.875C170.735 168.974 168.756 169.336 166.445 168.928L166.27 169.913C168.794 170.358 171.038 169.969 172.964 168.712L172.418 167.875Z" fill="#202027" mask="url(#path-38-outside-10_17_6060)"/>
</g>
<defs>
<filter id="filter0_d_17_6060" x="56.655" y="25.3291" width="228.775" height="262.516" filterUnits="userSpaceOnUse" color-interpolation-filters="sRGB">
<feFlood flood-opacity="0" result="BackgroundImageFix"/>
<feColorMatrix in="SourceAlpha" type="matrix" values="0 0 0 0 0 0 0 0 0 0 0 0 0 0 0 0 0 0 127 0" result="hardAlpha"/>
<feMorphology radius="8.31143" operator="erode" in="SourceAlpha" result="effect1_dropShadow_17_6060"/>
<feOffset dy="13.8524"/>
<feGaussianBlur stdDeviation="23.2027"/>
<feComposite in2="hardAlpha" operator="out"/>
<feColorMatrix type="matrix" values="0 0 0 0 0 0 0 0 0 0 0 0 0 0 0 0 0 0 0.3 0"/>
<feBlend mode="normal" in2="BackgroundImageFix" result="effect1_dropShadow_17_6060"/>
<feBlend mode="normal" in="SourceGraphic" in2="effect1_dropShadow_17_6060" result="shape"/>
</filter>
<clipPath id="clip0_17_6060">
<rect y="0.228027" width="343" height="284.926" rx="30" fill="white"/>
</clipPath>
</defs>
</svg>
